{
  "accessors": [
    {
      "bufferView": 2,
      "componentType": 5126,
      "count": 2730,
      "max": [
        1.5827935934066772,
        1.6234980821609497,
        0.23417241871356964
      ],
      "min": [
        -1.5827937126159668,
        -1.6234980821609497,
        -87.1661605834961
      ],
      "type": "VEC3"
    },
    {
      "bufferView": 2,
      "byteOffset": 32760,
      "componentType": 5126,
      "count": 2730,
      "max": [
        0.974928081035614,
        1.0,
        0.8966586589813232
      ],
      "min": [
        -0.9749280214309692,
        -1.0,
        -0.8966587781906128
      ],
      "type": "VEC3"
    },
    {
      "bufferView": 3,
      "componentType": 5126,
      "count": 2730,
      "max": [
        1.0,
        0.9933730959892273,
        0.37735459208488464,
        1.0
      ],
      "min": [
        -0.9927012920379639,
        -0.9933610558509827,
        -0.20606951415538788,
        1.0
      ],
      "type": "VEC4"
    },
    {
      "bufferView": 1,
      "componentType": 5126,
      "count": 2730,
      "max": [
        0.5495688319206238,
        0.12750259041786194
      ],
      "min": [
        0.0010000093607231975,
        0.0010000000474974513
      ],
      "type": "VEC2"
    },
    {
      "bufferView": 0,
      "componentType": 5125,
      "count": 13104,
      "type": "SCALAR"
    },
    {
      "bufferView": 2,
      "byteOffset": 65520,
      "componentType": 5126,
      "count": 8706,
      "max": [
        0.7639448642730713,
        -3.0160040855407715,
        0.4759678840637207
      ],
      "min": [
        -0.7692756652832031,
        -5.088597297668457,
        0.322503924369812
      ],
      "type": "VEC3"
    },
    {
      "bufferView": 2,
      "byteOffset": 169992,
      "componentType": 5126,
      "count": 8706,
      "max": [
        0.999984085559845,
        0.8730687499046326,
        0.9999973177909851
      ],
      "min": [
        -0.9961695671081543,
        -0.9794033169746399,
        -0.9999706149101257
      ],
      "type": "VEC3"
    },
    {
      "bufferView": 3,
      "byteOffset": 43680,
      "componentType": 5126,
      "count": 8706,
      "max": [
        0.9999890923500061,
        0.9807823896408081,
        0.996120810508728,
        1.0
      ],
      "min": [
        -0.9998797178268433,
        -0.9866247177124023,
        -0.979152500629425,
        1.0
      ],
      "type": "VEC4"
    },
    {
      "bufferView": 1,
      "byteOffset": 21840,
      "componentType": 5126,
      "count": 8706,
      "max": [
        0.989689826965332,
        0.9919931888580322
      ],
      "min": [
        0.0010000000474974513,
        0.03497878089547157
      ],
      "type": "VEC2"
    },
    {
      "bufferView": 0,
      "byteOffset": 52416,
      "componentType": 5125,
      "count": 50688,
      "type": "SCALAR"
    },
    {
      "bufferView": 2,
      "byteOffset": 274464,
      "componentType": 5126,
      "count": 74,
      "max": [
        0.8307347893714905,
        0.8181141018867493,
        182.0499267578125
      ],
      "min": [
        -0.8307347893714905,
        -0.818114161491394,
        0.0
      ],
      "type": "VEC3"
    },
    {
      "bufferView": 2,
      "byteOffset": 275352,
      "componentType": 5126,
      "count": 74,
      "max": [
        1.0,
        0.9848079085350037,
        1.0
      ],
      "min": [
        -1.0,
        -0.9848079085350037,
        -1.0
      ],
      "type": "VEC3"
    },
    {
      "bufferView": 3,
      "byteOffset": 182976,
      "componentType": 5126,
      "count": 74,
      "max": [
        0.025571713224053383,
        1.0,
        0.9996656179428101,
        1.0
      ],
      "min": [
        -0.02557731419801712,
        -1.0,
        0.0,
        1.0
      ],
      "type": "VEC4"
    },
    {
      "bufferView": 1,
      "byteOffset": 91488,
      "componentType": 5126,
      "count": 74,
      "max": [
        0.9990000128746033,
        0.13752472400665283
      ],
      "min": [
        0.001000029849819839,
        0.0010000000474974513
      ],
      "type": "VEC2"
    },
    {
      "bufferView": 0,
      "byteOffset": 255168,
      "componentType": 5125,
      "count": 204,
      "type": "SCALAR"
    }
  ],
  "asset": {
    "extras": {
      "author": "Farkas Interactive (https://sketchfab.com/farkasinteractive)",
      "license": "CC-BY-4.0 (http://creativecommons.org/licenses/by/4.0/)",
      "source": "https://sketchfab.com/3d-models/retro-patterned-curtain-d08057d0adda4993ba7352f3ceba410d",
      "title": "Retro Patterned Curtain"
    },
    "generator": "Sketchfab-16.68.0",
    "version": "2.0"
  },
  "bufferViews": [
    {
      "buffer": 0,
      "byteLength": 255984,
      "name": "floatBufferViews",
      "target": 34963
    },
    {
      "buffer": 0,
      "byteLength": 92080,
      "byteOffset": 255984,
      "byteStride": 8,
      "name": "floatBufferViews",
      "target": 34962
    },
    {
      "buffer": 0,
      "byteLength": 276240,
      "byteOffset": 348064,
      "byteStride": 12,
      "name": "floatBufferViews",
      "target": 34962
    },
    {
      "buffer": 0,
      "byteLength": 184160,
      "byteOffset": 624304,
      "byteStride": 16,
      "name": "floatBufferViews",
      "target": 34962
    }
  ],
  "buffers": [
    {
      "byteLength": 808464,
      "uri": "scene.bin"
    }
  ],
  "images": [
    {
      "uri": "textures/01_-_Default_baseColor.png"
    },
    {
      "uri": "textures/01_-_Default_metallicRoughness.png"
    },
    {
      "uri": "textures/01_-_Default_normal.png"
    }
  ],
  "materials": [
    {
      "doubleSided": true,
      "name": "01_-_Default",
      "normalTexture": {
        "index": 2
      },
      "pbrMetallicRoughness": {
        "baseColorTexture": {
          "index": 0
        },
        "metallicRoughnessTexture": {
          "index": 1
        }
      }
    }
  ],
  "meshes": [
    {
      "name": "Torus026_01 - Default_0",
      "primitives": [
        {
          "attributes": {
            "NORMAL": 1,
            "POSITION": 0,
            "TANGENT": 2,
            "TEXCOORD_0": 3
          },
          "indices": 4,
          "material": 0,
          "mode": 4
        }
      ]
    },
    {
      "name": "Plane_01 - Default_0",
      "primitives": [
        {
          "attributes": {
            "NORMAL": 6,
            "POSITION": 5,
            "TANGENT": 7,
            "TEXCOORD_0": 8
          },
          "indices": 9,
          "material": 0,
          "mode": 4
        }
      ]
    },
    {
      "name": "Cylinder001_01 - Default_0",
      "primitives": [
        {
          "attributes": {
            "NORMAL": 11,
            "POSITION": 10,
            "TANGENT": 12,
            "TEXCOORD_0": 13
          },
          "indices": 14,
          "material": 0,
          "mode": 4
        }
      ]
    }
  ],
  "nodes": [
    {
      "children": [
        1
      ],
      "matrix": [
        1.0,
        0.0,
        0.0,
        0.0,
        0.0,
        2.220446049250313e-16,
        -1.0,
        0.0,
        0.0,
        1.0,
        2.220446049250313e-16,
        0.0,
        0.0,
        0.0,
        0.0,
        1.0
      ],
      "name": "Sketchfab_model"
    },
    {
      "children": [
        2
      ],
      "matrix": [
        0.02539999969303608,
        0.0,
        0.0,
        0.0,
        0.0,
        0.0,
        0.02539999969303608,
        0.0,
        0.0,
        -0.02539999969303608,
        0.0,
        0.0,
        0.0,
        0.0,
        0.0,
        1.0
      ],
      "name": "904fd7170ff2425e8d61b8d891958dfa.fbx"
    },
    {
      "children": [
        3
      ],
      "name": "RootNode"
    },
    {
      "children": [
        4,
        6,
        9
      ],
      "matrix": [
        1.0,
        0.0,
        0.0,
        0.0,
        0.0,
        2.220446049250313e-16,
        -1.0,
        0.0,
        0.0,
        1.0,
        2.220446049250313e-16,
        0.0,
        0.0,
        0.0,
        0.0,
        1.0
      ],
      "name": "Group001"
    },
    {
      "children": [
        5
      ],
      "matrix": [
        7.549790126404332e-08,
        0.0,
        -0.9999999999999971,
        0.0,
        0.0,
        1.0,
        0.0,
        0.0,
        0.9999999999999971,
        0.0,
        7.549790126404332e-08,
        0.0,
        44.57613754272461,
        -0.24318647384643555,
        46.718414306640625,
        1.0
      ],
      "name": "Torus026"
    },
    {
      "mesh": 0,
      "name": "Torus026_01 - Default_0"
    },
    {
      "children": [
        7
      ],
      "matrix": [
        61.27545166015625,
        0.0,
        0.0,
        0.0,
        0.0,
        -7.487278926200213e-06,
        45.95658874511658,
        0.0,
        0.0,
        -30.63772583007772,
        -4.991519284133475e-06,
        0.0,
        0.8494720458984375,
        2.384185791015625e-06,
        -0.67657470703125,
        1.0
      ],
      "name": "Plane"
    },
    {
      "children": [
        8
      ],
      "matrix": [
        1.0,
        0.0,
        -0.0,
        0.0,
        0.0,
        1.0,
        0.0,
        0.0,
        0.0,
        0.0,
        1.0,
        0.0,
        0.002665405161678791,
        4.052300930023193,
        -0.3992357850074768,
        1.0
      ],
      "name": "Object_7"
    },
    {
      "mesh": 1,
      "name": "Plane_01 - Default_0"
    },
    {
      "children": [
        10
      ],
      "matrix": [
        7.549790126404332e-08,
        0.0,
        -0.9999999999999971,
        0.0,
        0.0,
        1.0,
        0.0,
        0.0,
        1.5213449001312211,
        0.0,
        1.1485834705866312e-07,
        0.0,
        -138.48036193847656,
        -0.05573606491088867,
        46.940185546875,
        1.0
      ],
      "name": "Cylinder001"
    },
    {
      "mesh": 2,
      "name": "Cylinder001_01 - Default_0"
    }
  ],
  "samplers": [
    {
      "magFilter": 9729,
      "minFilter": 9987,
      "wrapS": 10497,
      "wrapT": 10497
    }
  ],
  "scene": 0,
  "scenes": [
    {
      "name": "Sketchfab_Scene",
      "nodes": [
        0
      ]
    }
  ],
  "textures": [
    {
      "sampler": 0,
      "source": 0
    },
    {
      "sampler": 0,
      "source": 1
    },
    {
      "sampler": 0,
      "source": 2
    }
  ]
}
