{
  "accessors": [
    {
      "bufferView": 2,
      "componentType": 5126,
      "count": 14223,
      "max": [
        414.0,
        90.0,
        7.105427357601002e-15
      ],
      "min": [
        -207.65562438964844,
        3.552713678800501e-15,
        -119.19999694824219
      ],
      "type": "VEC3"
    },
    {
      "bufferView": 2,
      "byteOffset": 170676,
      "componentType": 5126,
      "count": 14223,
      "max": [
        1.0,
        1.0,
        1.0
      ],
      "min": [
        -1.0,
        -1.0,
        -1.0
      ],
      "type": "VEC3"
    },
    {
      "bufferView": 3,
      "componentType": 5126,
      "count": 14223,
      "max": [
        1.0,
        0.9898396134376526,
        1.0,
        1.0
      ],
      "min": [
        -1.0,
        -1.0,
        -1.0,
        -1.0
      ],
      "type": "VEC4"
    },
    {
      "bufferView": 1,
      "componentType": 5126,
      "count": 14223,
      "max": [
        0.9693567752838135,
        0.9989597797393799
      ],
      "min": [
        0.0010401909239590168,
        0.0010402202606201172
      ],
      "type": "VEC2"
    },
    {
      "bufferView": 0,
      "componentType": 5125,
      "count": 47448,
      "type": "SCALAR"
    },
    {
      "bufferView": 2,
      "byteOffset": 341352,
      "componentType": 5126,
      "count": 4741,
      "max": [
        0.0,
        90.0,
        7.105427357601002e-15
      ],
      "min": [
        -207.65562438964844,
        3.552713678800501e-15,
        -119.19999694824219
      ],
      "type": "VEC3"
    },
    {
      "bufferView": 2,
      "byteOffset": 398244,
      "componentType": 5126,
      "count": 4741,
      "max": [
        1.0,
        1.0,
        1.0
      ],
      "min": [
        -1.0,
        -1.0,
        -1.0
      ],
      "type": "VEC3"
    },
    {
      "bufferView": 3,
      "byteOffset": 227568,
      "componentType": 5126,
      "count": 4741,
      "max": [
        1.0,
        0.9898396134376526,
        1.0,
        1.0
      ],
      "min": [
        -1.0,
        -1.0,
        -1.0,
        -1.0
      ],
      "type": "VEC4"
    },
    {
      "bufferView": 1,
      "byteOffset": 113784,
      "componentType": 5126,
      "count": 4741,
      "max": [
        0.9693567752838135,
        0.9989597797393799
      ],
      "min": [
        0.0010401909239590168,
        0.0010402202606201172
      ],
      "type": "VEC2"
    },
    {
      "bufferView": 0,
      "byteOffset": 189792,
      "componentType": 5125,
      "count": 15816,
      "type": "SCALAR"
    }
  ],
  "asset": {
    "extras": {
      "author": "Mehdi Shahsavan (https://sketchfab.com/ahmagh2e)",
      "license": "CC-BY-4.0 (http://creativecommons.org/licenses/by/4.0/)",
      "source": "https://sketchfab.com/3d-models/office-desk-in-the-middle-of-the-hall-19mb-c4fc30e337f8434fb26606db97b6467e",
      "title": "Office Desk In The Middle Of The Hall -19MB"
    },
    "generator": "Sketchfab-16.15.0",
    "version": "2.0"
  },
  "bufferViews": [
    {
      "buffer": 0,
      "byteLength": 253056,
      "name": "floatBufferViews",
      "target": 34963
    },
    {
      "buffer": 0,
      "byteLength": 151712,
      "byteOffset": 253056,
      "byteStride": 8,
      "name": "floatBufferViews",
      "target": 34962
    },
    {
      "buffer": 0,
      "byteLength": 455136,
      "byteOffset": 404768,
      "byteStride": 12,
      "name": "floatBufferViews",
      "target": 34962
    },
    {
      "buffer": 0,
      "byteLength": 303424,
      "byteOffset": 859904,
      "byteStride": 16,
      "name": "floatBufferViews",
      "target": 34962
    }
  ],
  "buffers": [
    {
      "byteLength": 1163328,
      "uri": "scene.bin"
    }
  ],
  "images": [
    {
      "uri": "textures/Scene_-_Root_baseColor.png"
    },
    {
      "uri": "textures/Scene_-_Root_metallicRoughness.png"
    },
    {
      "uri": "textures/Scene_-_Root_normal.png"
    }
  ],
  "materials": [
    {
      "doubleSided": true,
      "name": "Scene_-_Root",
      "normalTexture": {
        "index": 2
      },
      "pbrMetallicRoughness": {
        "baseColorTexture": {
          "index": 0
        },
        "metallicRoughnessTexture": {
          "index": 1
        }
      }
    }
  ],
  "meshes": [
    {
      "name": "All__0",
      "primitives": [
        {
          "attributes": {
            "NORMAL": 1,
            "POSITION": 0,
            "TANGENT": 2,
            "TEXCOORD_0": 3
          },
          "indices": 4,
          "material": 0,
          "mode": 4
        }
      ]
    },
    {
      "name": "Office_desk_in_the_middle_of_the_hall__0",
      "primitives": [
        {
          "attributes": {
            "NORMAL": 6,
            "POSITION": 5,
            "TANGENT": 7,
            "TEXCOORD_0": 8
          },
          "indices": 9,
          "material": 0,
          "mode": 4
        }
      ]
    }
  ],
  "nodes": [
    {
      "children": [
        1
      ],
      "matrix": [
        1.0,
        0.0,
        0.0,
        0.0,
        0.0,
        2.220446049250313e-16,
        -1.0,
        0.0,
        0.0,
        1.0,
        2.220446049250313e-16,
        0.0,
        0.0,
        0.0,
        0.0,
        1.0
      ],
      "name": "Sketchfab_model"
    },
    {
      "children": [
        2
      ],
      "matrix": [
        0.009999999776482582,
        0.0,
        0.0,
        0.0,
        0.0,
        0.0,
        0.009999999776482582,
        0.0,
        0.0,
        -0.009999999776482582,
        0.0,
        0.0,
        0.0,
        0.0,
        0.0,
        1.0
      ],
      "name": "066e27ead09e4ca3a19e2ae96af2691d.fbx"
    },
    {
      "children": [
        3,
        5,
        7
      ],
      "name": "RootNode"
    },
    {
      "children": [
        4
      ],
      "matrix": [
        -0.7219086930819902,
        -0.11916726306267275,
        0.6816502052129114,
        0.0,
        -0.08664530081419128,
        0.9928741931454115,
        0.08181337563422347,
        0.0,
        -0.6865423735644223,
        2.8449465006019636e-16,
        -0.7270897945237087,
        0.0,
        1107.325927734375,
        343.0881042480469,
        -1087.2584228515625,
        1.0
      ],
      "name": "CINEMA_4D_Editor"
    },
    {
      "name": "Object_4"
    },
    {
      "children": [
        6
      ],
      "matrix": [
        1.0,
        0.0,
        0.0,
        0.0,
        0.0,
        1.0,
        0.0,
        0.0,
        0.0,
        0.0,
        1.0,
        0.0,
        103.82781219482422,
        -3.552713678800501e-15,
        59.599998474121094,
        1.0
      ],
      "name": "All"
    },
    {
      "mesh": 0,
      "name": "All__0"
    },
    {
      "children": [
        8
      ],
      "matrix": [
        2.220446049250313e-16,
        0.0,
        1.0,
        0.0,
        0.0,
        1.0,
        0.0,
        0.0,
        -1.0,
        0.0,
        2.220446049250313e-16,
        0.0,
        -162.08746337890625,
        -3.552713678800501e-15,
        -235.46621704101563,
        1.0
      ],
      "name": "Office_desk_in_the_middle_of_the_hall"
    },
    {
      "mesh": 1,
      "name": "Office_desk_in_the_middle_of_the_hall__0"
    }
  ],
  "samplers": [
    {
      "magFilter": 9729,
      "minFilter": 9987,
      "wrapS": 10497,
      "wrapT": 10497
    }
  ],
  "scene": 0,
  "scenes": [
    {
      "name": "Sketchfab_Scene",
      "nodes": [
        0
      ]
    }
  ],
  "textures": [
    {
      "sampler": 0,
      "source": 0
    },
    {
      "sampler": 0,
      "source": 1
    },
    {
      "sampler": 0,
      "source": 2
    }
  ]
}
