{
  "accessors": [
    {
      "bufferView": 2,
      "componentType": 5126,
      "count": 11104,
      "max": [
        0.1728707104921341,
        0.05175130069255829,
        0.25770556926727295
      ],
      "min": [
        -0.17257709801197052,
        -0.03563115745782852,
        -0.00038277357816696167
      ],
      "type": "VEC3"
    },
    {
      "bufferView": 2,
      "byteOffset": 133248,
      "componentType": 5126,
      "count": 11104,
      "max": [
        1.0,
        1.0,
        1.0
      ],
      "min": [
        -1.0,
        -1.0,
        -1.0
      ],
      "type": "VEC3"
    },
    {
      "bufferView": 3,
      "componentType": 5126,
      "count": 11104,
      "max": [
        1.0,
        1.0,
        1.0,
        1.0
      ],
      "min": [
        -1.0,
        -1.0,
        -1.0,
        -1.0
      ],
      "type": "VEC4"
    },
    {
      "bufferView": 1,
      "componentType": 5126,
      "count": 11104,
      "max": [
        0.9947126507759094,
        0.9929095506668091
      ],
      "min": [
        0.0032131667248904705,
        0.0026534204371273518
      ],
      "type": "VEC2"
    },
    {
      "bufferView": 1,
      "byteOffset": 88832,
      "componentType": 5126,
      "count": 11104,
      "max": [
        0.9947126507759094,
        0.9929095506668091
      ],
      "min": [
        0.0032131667248904705,
        0.0026534204371273518
      ],
      "type": "VEC2"
    },
    {
      "bufferView": 1,
      "byteOffset": 177664,
      "componentType": 5126,
      "count": 11104,
      "max": [
        0.9947126507759094,
        0.9929095506668091
      ],
      "min": [
        0.0032131667248904705,
        0.0026534204371273518
      ],
      "type": "VEC2"
    },
    {
      "bufferView": 1,
      "byteOffset": 266496,
      "componentType": 5126,
      "count": 11104,
      "max": [
        0.9947126507759094,
        0.9929095506668091
      ],
      "min": [
        0.0032131667248904705,
        0.0026534204371273518
      ],
      "type": "VEC2"
    },
    {
      "bufferView": 0,
      "componentType": 5125,
      "count": 23967,
      "type": "SCALAR"
    },
    {
      "bufferView": 2,
      "byteOffset": 266496,
      "componentType": 5126,
      "count": 5014,
      "max": [
        0.08938807249069214,
        0.09288688004016876,
        0.1842379868030548
      ],
      "min": [
        -0.08938807249069214,
        -0.03369322419166565,
        0.0007836595177650452
      ],
      "type": "VEC3"
    },
    {
      "bufferView": 2,
      "byteOffset": 326664,
      "componentType": 5126,
      "count": 5014,
      "max": [
        1.0,
        1.0,
        1.0
      ],
      "min": [
        -1.0,
        -1.0,
        -1.0
      ],
      "type": "VEC3"
    },
    {
      "bufferView": 3,
      "byteOffset": 177664,
      "componentType": 5126,
      "count": 5014,
      "max": [
        0.9951848387718201,
        1.0,
        0.9887873530387878,
        1.0
      ],
      "min": [
        -0.9999947547912598,
        -1.0,
        -1.0,
        -1.0
      ],
      "type": "VEC4"
    },
    {
      "bufferView": 1,
      "byteOffset": 355328,
      "componentType": 5126,
      "count": 5014,
      "max": [
        0.9996113181114197,
        0.9333546757698059
      ],
      "min": [
        0.0008731108973734081,
        0.0006354699726216495
      ],
      "type": "VEC2"
    },
    {
      "bufferView": 1,
      "byteOffset": 395440,
      "componentType": 5126,
      "count": 5014,
      "max": [
        0.9996113181114197,
        0.9333546757698059
      ],
      "min": [
        0.0008731108973734081,
        0.0006354699726216495
      ],
      "type": "VEC2"
    },
    {
      "bufferView": 1,
      "byteOffset": 435552,
      "componentType": 5126,
      "count": 5014,
      "max": [
        0.9996113181114197,
        0.9333546757698059
      ],
      "min": [
        0.0008731108973734081,
        0.0006354699726216495
      ],
      "type": "VEC2"
    },
    {
      "bufferView": 0,
      "byteOffset": 95868,
      "componentType": 5125,
      "count": 8064,
      "type": "SCALAR"
    }
  ],
  "asset": {
    "extras": {
      "author": "Glowbox 3D (https://sketchfab.com/glowbox3d)",
      "license": "CC-BY-4.0 (http://creativecommons.org/licenses/by/4.0/)",
      "source": "https://sketchfab.com/3d-models/flat-screen-tv-pink-crt-tv-1b2c608e92fa42a586205e05eb55c014",
      "title": "Flat Screen TV & Pink CRT TV 📺💖"
    },
    "generator": "Sketchfab-16.15.0",
    "version": "2.0"
  },
  "bufferViews": [
    {
      "buffer": 0,
      "byteLength": 128124,
      "name": "floatBufferViews",
      "target": 34963
    },
    {
      "buffer": 0,
      "byteLength": 475664,
      "byteOffset": 128124,
      "byteStride": 8,
      "name": "floatBufferViews",
      "target": 34962
    },
    {
      "buffer": 0,
      "byteLength": 386832,
      "byteOffset": 603788,
      "byteStride": 12,
      "name": "floatBufferViews",
      "target": 34962
    },
    {
      "buffer": 0,
      "byteLength": 257888,
      "byteOffset": 990620,
      "byteStride": 16,
      "name": "floatBufferViews",
      "target": 34962
    }
  ],
  "buffers": [
    {
      "byteLength": 1248508,
      "uri": "scene.bin"
    }
  ],
  "images": [
    {
      "uri": "textures/M_Tvold2000_1_baseColor.png"
    },
    {
      "uri": "textures/M_Tvold2000_1_metallicRoughness.png"
    },
    {
      "uri": "textures/M_Tvold2000_1_emissive.png"
    },
    {
      "uri": "textures/M_Tvold2000_1_normal.png"
    },
    {
      "uri": "textures/M_TvOldCRT_01_baseColor.png"
    },
    {
      "uri": "textures/M_TvOldCRT_01_normal.png"
    }
  ],
  "materials": [
    {
      "doubleSided": true,
      "emissiveFactor": [
        1.0,
        1.0,
        1.0
      ],
      "emissiveTexture": {
        "index": 2,
        "texCoord": 1
      },
      "name": "M_Tvold2000_1",
      "normalTexture": {
        "index": 3,
        "texCoord": 2
      },
      "pbrMetallicRoughness": {
        "baseColorTexture": {
          "index": 0
        },
        "metallicRoughnessTexture": {
          "index": 1
        }
      }
    },
    {
      "doubleSided": true,
      "name": "M_TvOldCRT_01",
      "normalTexture": {
        "index": 5
      },
      "pbrMetallicRoughness": {
        "baseColorTexture": {
          "index": 4
        },
        "metallicRoughnessTexture": {
          "index": 1
        }
      }
    }
  ],
  "meshes": [
    {
      "name": "Cube_M_Tvold2000_1_0",
      "primitives": [
        {
          "attributes": {
            "NORMAL": 1,
            "POSITION": 0,
            "TANGENT": 2,
            "TEXCOORD_0": 3,
            "TEXCOORD_1": 4,
            "TEXCOORD_2": 5,
            "TEXCOORD_3": 6
          },
          "indices": 7,
          "material": 0,
          "mode": 4
        }
      ]
    },
    {
      "name": "Cube.003_M_TvOldCRT_01_0",
      "primitives": [
        {
          "attributes": {
            "NORMAL": 9,
            "POSITION": 8,
            "TANGENT": 10,
            "TEXCOORD_0": 11,
            "TEXCOORD_1": 12,
            "TEXCOORD_2": 13
          },
          "indices": 14,
          "material": 1,
          "mode": 4
        }
      ]
    }
  ],
  "nodes": [
    {
      "children": [
        1
      ],
      "matrix": [
        1.0,
        0.0,
        0.0,
        0.0,
        0.0,
        2.220446049250313e-16,
        -1.0,
        0.0,
        0.0,
        1.0,
        2.220446049250313e-16,
        0.0,
        0.0,
        0.0,
        0.0,
        1.0
      ],
      "name": "Sketchfab_model"
    },
    {
      "children": [
        2
      ],
      "matrix": [
        0.009999999776482582,
        0.0,
        0.0,
        0.0,
        0.0,
        0.0,
        0.009999999776482582,
        0.0,
        0.0,
        -0.009999999776482582,
        0.0,
        0.0,
        0.0,
        0.0,
        0.0,
        1.0
      ],
      "name": "9a1e5daf4cea422da55548b4271eeb4e.fbx"
    },
    {
      "children": [
        3,
        5
      ],
      "name": "RootNode"
    },
    {
      "children": [
        4
      ],
      "matrix": [
        100.0,
        0.0,
        0.0,
        0.0,
        -0.0,
        -1.629206793918314e-05,
        -99.99999999999868,
        0.0,
        0.0,
        99.99999999999868,
        -1.629206793918314e-05,
        0.0,
        -20.742815017700195,
        0.08011478930711746,
        -2.4243993759155273,
        1.0
      ],
      "name": "Cube"
    },
    {
      "mesh": 0,
      "name": "Cube_M_Tvold2000_1_0"
    },
    {
      "children": [
        6
      ],
      "matrix": [
        100.0,
        0.0,
        0.0,
        0.0,
        0.0,
        -1.629206793918314e-05,
        -99.99999999999868,
        0.0,
        0.0,
        99.99999999999868,
        -1.629206793918314e-05,
        0.0,
        14.81163215637207,
        -0.3934566378593445,
        2.9648783206939697,
        1.0
      ],
      "name": "Cube.003"
    },
    {
      "mesh": 1,
      "name": "Cube.003_M_TvOldCRT_01_0"
    }
  ],
  "samplers": [
    {
      "magFilter": 9729,
      "minFilter": 9987,
      "wrapS": 10497,
      "wrapT": 10497
    }
  ],
  "scene": 0,
  "scenes": [
    {
      "name": "Sketchfab_Scene",
      "nodes": [
        0
      ]
    }
  ],
  "textures": [
    {
      "sampler": 0,
      "source": 0
    },
    {
      "sampler": 0,
      "source": 1
    },
    {
      "sampler": 0,
      "source": 2
    },
    {
      "sampler": 0,
      "source": 3
    },
    {
      "sampler": 0,
      "source": 4
    },
    {
      "sampler": 0,
      "source": 5
    }
  ]
}
