{
  "accessors": [
    {
      "bufferView": 2,
      "componentType": 5126,
      "count": 6800,
      "max": [
        6.62851619720459,
        2.872039794921875,
        3.594426155090332
      ],
      "min": [
        3.8921191692352295,
        0.13564395904541016,
        0.0029450003057718277
      ],
      "type": "VEC3"
    },
    {
      "bufferView": 2,
      "byteOffset": 81600,
      "componentType": 5126,
      "count": 6800,
      "max": [
        0.8091831803321838,
        0.8092816472053528,
        1.0
      ],
      "min": [
        -0.8094578981399536,
        -0.8092160224914551,
        -1.0
      ],
      "type": "VEC3"
    },
    {
      "bufferView": 1,
      "componentType": 5126,
      "count": 6800,
      "max": [
        0.6524680256843567,
        0.6439449787139893
      ],
      "min": [
        0.3475320041179657,
        0.0036299999337643385
      ],
      "type": "VEC2"
    },
    {
      "bufferView": 0,
      "componentType": 5125,
      "count": 14940,
      "type": "SCALAR"
    },
    {
      "bufferView": 2,
      "byteOffset": 163200,
      "componentType": 5126,
      "count": 4044,
      "max": [
        6.764159202575684,
        3.0076839923858643,
        4.507011890411377
      ],
      "min": [
        3.7564761638641357,
        0.0,
        0.007711000740528107
      ],
      "type": "VEC3"
    },
    {
      "bufferView": 2,
      "byteOffset": 211728,
      "componentType": 5126,
      "count": 4044,
      "max": [
        0.8113868832588196,
        0.8114657998085022,
        0.9768728613853455
      ],
      "min": [
        -0.8113093972206116,
        -0.8111658096313477,
        -0.9988040924072266
      ],
      "type": "VEC3"
    },
    {
      "bufferView": 1,
      "byteOffset": 54400,
      "componentType": 5126,
      "count": 4044,
      "max": [
        1.0,
        1.0
      ],
      "min": [
        0.0,
        0.3125
      ],
      "type": "VEC2"
    },
    {
      "bufferView": 0,
      "byteOffset": 59760,
      "componentType": 5125,
      "count": 8460,
      "type": "SCALAR"
    },
    {
      "bufferView": 2,
      "byteOffset": 260256,
      "componentType": 5126,
      "count": 27920,
      "max": [
        6.628296852111816,
        2.871821880340576,
        3.594426155090332
      ],
      "min": [
        3.892338275909424,
        0.13586294651031494,
        0.5443850159645081
      ],
      "type": "VEC3"
    },
    {
      "bufferView": 2,
      "byteOffset": 595296,
      "componentType": 5126,
      "count": 27920,
      "max": [
        0.9985196590423584,
        0.9985169768333435,
        0.9995323419570923
      ],
      "min": [
        -0.998512864112854,
        -0.9985238909721375,
        -0.9986406564712524
      ],
      "type": "VEC3"
    },
    {
      "bufferView": 1,
      "byteOffset": 86752,
      "componentType": 5126,
      "count": 27920,
      "max": [
        0.625,
        0.6439449787139893
      ],
      "min": [
        0.375,
        0.3574120104312897
      ],
      "type": "VEC2"
    },
    {
      "bufferView": 0,
      "byteOffset": 93600,
      "componentType": 5125,
      "count": 41880,
      "type": "SCALAR"
    },
    {
      "bufferView": 2,
      "byteOffset": 930336,
      "componentType": 5126,
      "count": 7691,
      "max": [
        6.764159202575684,
        3.0076839923858643,
        4.481426239013672
      ],
      "min": [
        3.7564761638641357,
        0.0,
        0.06098799780011177
      ],
      "type": "VEC3"
    },
    {
      "bufferView": 2,
      "byteOffset": 1022628,
      "componentType": 5126,
      "count": 7691,
      "max": [
        0.9989941120147705,
        0.9989595413208008,
        0.09090599417686462
      ],
      "min": [
        -0.9989506602287292,
        -0.9989809989929199,
        -0.4404819905757904
      ],
      "type": "VEC3"
    },
    {
      "bufferView": 1,
      "byteOffset": 310112,
      "componentType": 5126,
      "count": 7691,
      "max": [
        1.0,
        1.0
      ],
      "min": [
        0.0,
        0.04959600046277046
      ],
      "type": "VEC2"
    },
    {
      "bufferView": 0,
      "byteOffset": 261120,
      "componentType": 5125,
      "count": 36120,
      "type": "SCALAR"
    },
    {
      "bufferView": 2,
      "byteOffset": 1114920,
      "componentType": 5126,
      "count": 7580,
      "max": [
        6.712897300720215,
        2.956422805786133,
        4.507011890411377
      ],
      "min": [
        3.8077383041381836,
        0.0512620210647583,
        0.08479499816894531
      ],
      "type": "VEC3"
    },
    {
      "bufferView": 2,
      "byteOffset": 1205880,
      "componentType": 5126,
      "count": 7580,
      "max": [
        0.99863201379776,
        0.99863201379776,
        0.4602922201156616
      ],
      "min": [
        -0.99863201379776,
        -0.99863201379776,
        -0.051146000623703
      ],
      "type": "VEC3"
    },
    {
      "bufferView": 1,
      "byteOffset": 371640,
      "componentType": 5126,
      "count": 7580,
      "max": [
        1.0,
        1.0
      ],
      "min": [
        0.0,
        0.04959600046277046
      ],
      "type": "VEC2"
    },
    {
      "bufferView": 0,
      "byteOffset": 405600,
      "componentType": 5125,
      "count": 36120,
      "type": "SCALAR"
    },
    {
      "bufferView": 2,
      "byteOffset": 1296840,
      "componentType": 5126,
      "count": 3950,
      "max": [
        10.607146263122559,
        2.9496970176696777,
        4.458364963531494
      ],
      "min": [
        7.718943119049072,
        0.061492919921875,
        0.0
      ],
      "type": "VEC3"
    },
    {
      "bufferView": 2,
      "byteOffset": 1344240,
      "componentType": 5126,
      "count": 3950,
      "max": [
        0.9994481205940247,
        0.9994466304779053,
        1.0
      ],
      "min": [
        -0.9994473457336426,
        -0.9994463324546814,
        -1.0
      ],
      "type": "VEC3"
    },
    {
      "bufferView": 1,
      "byteOffset": 432280,
      "componentType": 5126,
      "count": 3950,
      "max": [
        1.0,
        1.0
      ],
      "min": [
        0.0,
        0.00419900007545948
      ],
      "type": "VEC2"
    },
    {
      "bufferView": 0,
      "byteOffset": 550080,
      "componentType": 5125,
      "count": 8640,
      "type": "SCALAR"
    },
    {
      "bufferView": 2,
      "byteOffset": 1391640,
      "componentType": 5126,
      "count": 15840,
      "max": [
        10.470174789428711,
        2.812725067138672,
        3.8020429611206055
      ],
      "min": [
        7.855915069580078,
        0.19846594333648682,
        0.7046390175819397
      ],
      "type": "VEC3"
    },
    {
      "bufferView": 2,
      "byteOffset": 1581720,
      "componentType": 5126,
      "count": 15840,
      "max": [
        0.9969221353530884,
        0.9969222545623779,
        0.9992160201072693
      ],
      "min": [
        -0.9969222545623779,
        -0.9969221353530884,
        -0.9992161393165588
      ],
      "type": "VEC3"
    },
    {
      "bufferView": 1,
      "byteOffset": 463880,
      "componentType": 5126,
      "count": 15840,
      "max": [
        0.625,
        0.6482539772987366
      ],
      "min": [
        0.375,
        0.3668600022792816
      ],
      "type": "VEC2"
    },
    {
      "bufferView": 0,
      "byteOffset": 584640,
      "componentType": 5125,
      "count": 23760,
      "type": "SCALAR"
    },
    {
      "bufferView": 2,
      "byteOffset": 1771800,
      "componentType": 5126,
      "count": 2954,
      "max": [
        10.549783706665039,
        2.8923349380493164,
        4.452572822570801
      ],
      "min": [
        7.776305198669434,
        0.11885499954223633,
        0.09137299656867981
      ],
      "type": "VEC3"
    },
    {
      "bufferView": 2,
      "byteOffset": 1807248,
      "componentType": 5126,
      "count": 2954,
      "max": [
        0.999229907989502,
        0.999229907989502,
        0.30160707235336304
      ],
      "min": [
        -0.999229907989502,
        -0.999229907989502,
        0.037799984216690063
      ],
      "type": "VEC3"
    },
    {
      "bufferView": 1,
      "byteOffset": 590600,
      "componentType": 5126,
      "count": 2954,
      "max": [
        1.0,
        0.9767259955406189
      ],
      "min": [
        0.0,
        0.049995001405477524
      ],
      "type": "VEC2"
    },
    {
      "bufferView": 0,
      "byteOffset": 679680,
      "componentType": 5125,
      "count": 12960,
      "type": "SCALAR"
    },
    {
      "bufferView": 2,
      "byteOffset": 1842696,
      "componentType": 5126,
      "count": 2954,
      "max": [
        10.607146263122559,
        2.9496970176696777,
        4.434502124786377
      ],
      "min": [
        7.718943119049072,
        0.061492919921875,
        0.06709800660610199
      ],
      "type": "VEC3"
    },
    {
      "bufferView": 2,
      "byteOffset": 1878144,
      "componentType": 5126,
      "count": 2954,
      "max": [
        0.9992276430130005,
        0.9992276430130005,
        -0.029026992619037628
      ],
      "min": [
        -0.9992275238037109,
        -0.9992275238037109,
        -0.36748290061950684
      ],
      "type": "VEC3"
    },
    {
      "bufferView": 1,
      "byteOffset": 614232,
      "componentType": 5126,
      "count": 2954,
      "max": [
        1.0,
        0.976656973361969
      ],
      "min": [
        0.0,
        0.049995001405477524
      ],
      "type": "VEC2"
    },
    {
      "bufferView": 0,
      "byteOffset": 731520,
      "componentType": 5125,
      "count": 12960,
      "type": "SCALAR"
    },
    {
      "bufferView": 2,
      "byteOffset": 1913592,
      "componentType": 5126,
      "count": 2862,
      "max": [
        2.701120138168335,
        2.8561558723449707,
        4.554141998291016
      ],
      "min": [
        0.0,
        0.15503501892089844,
        0.004475999623537064
      ],
      "type": "VEC3"
    },
    {
      "bufferView": 2,
      "byteOffset": 1947936,
      "componentType": 5126,
      "count": 2862,
      "max": [
        0.6827691793441772,
        0.6827697157859802,
        1.0
      ],
      "min": [
        -0.6827697157859802,
        -0.6827691793441772,
        -1.0
      ],
      "type": "VEC3"
    },
    {
      "bufferView": 1,
      "byteOffset": 637864,
      "componentType": 5126,
      "count": 2862,
      "max": [
        1.0,
        1.0
      ],
      "min": [
        0.0,
        -0.0
      ],
      "type": "VEC2"
    },
    {
      "bufferView": 0,
      "byteOffset": 783360,
      "componentType": 5125,
      "count": 6120,
      "type": "SCALAR"
    },
    {
      "bufferView": 2,
      "byteOffset": 1982280,
      "componentType": 5126,
      "count": 59600,
      "max": [
        2.6105191707611084,
        2.765554904937744,
        3.809536933898926
      ],
      "min": [
        0.09060001373291016,
        0.245635986328125,
        0.5472549796104431
      ],
      "type": "VEC3"
    },
    {
      "bufferView": 2,
      "byteOffset": 2697480,
      "componentType": 5126,
      "count": 59600,
      "max": [
        0.9990385174751282,
        0.9990387558937073,
        0.9984718561172485
      ],
      "min": [
        -0.9990379810333252,
        -0.9990378618240356,
        -0.9984719753265381
      ],
      "type": "VEC3"
    },
    {
      "bufferView": 1,
      "byteOffset": 660760,
      "componentType": 5126,
      "count": 59600,
      "max": [
        0.625,
        0.6509749889373779
      ],
      "min": [
        0.375,
        0.35553500056266785
      ],
      "type": "VEC2"
    },
    {
      "bufferView": 0,
      "byteOffset": 807840,
      "componentType": 5125,
      "count": 89400,
      "type": "SCALAR"
    },
    {
      "bufferView": 2,
      "byteOffset": 3412680,
      "componentType": 5126,
      "count": 8244,
      "max": [
        2.6523871421813965,
        2.807421922683716,
        4.554141998291016
      ],
      "min": [
        0.048734188079833984,
        0.20376896858215332,
        0.08462700247764587
      ],
      "type": "VEC3"
    },
    {
      "bufferView": 2,
      "byteOffset": 3511608,
      "componentType": 5126,
      "count": 8244,
      "max": [
        0.9992781281471252,
        0.9992780089378357,
        0.4871421158313751
      ],
      "min": [
        -0.9992780089378357,
        -0.9992781281471252,
        0.037991996854543686
      ],
      "type": "VEC3"
    },
    {
      "bufferView": 1,
      "byteOffset": 1137560,
      "componentType": 5126,
      "count": 8244,
      "max": [
        1.0,
        1.0
      ],
      "min": [
        0.0,
        0.04999399930238724
      ],
      "type": "VEC2"
    },
    {
      "bufferView": 0,
      "byteOffset": 1165440,
      "componentType": 5125,
      "count": 37920,
      "type": "SCALAR"
    },
    {
      "bufferView": 2,
      "byteOffset": 3610536,
      "componentType": 5126,
      "count": 8244,
      "max": [
        2.701120138168335,
        2.8561558723449707,
        4.52695894241333
      ],
      "min": [
        0.0,
        0.15503501892089844,
        0.04733399674296379
      ],
      "type": "VEC3"
    },
    {
      "bufferView": 2,
      "byteOffset": 3709464,
      "componentType": 5126,
      "count": 8244,
      "max": [
        0.9993853569030762,
        0.9993853569030762,
        -0.0030539999715983868
      ],
      "min": [
        -0.9993853569030762,
        -0.9993853569030762,
        -0.48579612374305725
      ],
      "type": "VEC3"
    },
    {
      "bufferView": 1,
      "byteOffset": 1203512,
      "componentType": 5126,
      "count": 8244,
      "max": [
        1.0,
        1.0
      ],
      "min": [
        0.0,
        0.04999399930238724
      ],
      "type": "VEC2"
    },
    {
      "bufferView": 0,
      "byteOffset": 1317120,
      "componentType": 5125,
      "count": 37920,
      "type": "SCALAR"
    }
  ],
  "asset": {
    "extras": {
      "author": "Jeison Moura (https://sketchfab.com/jeison.moura)",
      "license": "CC-BY-4.0 (http://creativecommons.org/licenses/by/4.0/)",
      "source": "https://sketchfab.com/3d-models/baskets-cc613d8d1c4a418bb2a32103c1c71de5",
      "title": "Baskets"
    },
    "generator": "Sketchfab-12.66.0",
    "version": "2.0"
  },
  "bufferViews": [
    {
      "buffer": 0,
      "byteLength": 1468800,
      "name": "floatBufferViews",
      "target": 34963
    },
    {
      "buffer": 0,
      "byteLength": 1269464,
      "byteOffset": 1468800,
      "byteStride": 8,
      "name": "floatBufferViews",
      "target": 34962
    },
    {
      "buffer": 0,
      "byteLength": 3808392,
      "byteOffset": 2738264,
      "byteStride": 12,
      "name": "floatBufferViews",
      "target": 34962
    }
  ],
  "buffers": [
    {
      "byteLength": 6546656,
      "uri": "scene.bin"
    }
  ],
  "materials": [
    {
      "doubleSided": true,
      "name": "blinn1SG",
      "pbrMetallicRoughness": {
        "metallicFactor": 0.0,
        "roughnessFactor": 0.6
      }
    },
    {
      "doubleSided": true,
      "name": "blinn2SG",
      "pbrMetallicRoughness": {
        "metallicFactor": 0.0,
        "roughnessFactor": 0.6
      }
    },
    {
      "doubleSided": true,
      "name": "lambert2SG",
      "pbrMetallicRoughness": {
        "metallicFactor": 0.0,
        "roughnessFactor": 0.6
      }
    }
  ],
  "meshes": [
    {
      "name": "Object_0",
      "primitives": [
        {
          "attributes": {
            "NORMAL": 1,
            "POSITION": 0,
            "TEXCOORD_0": 2
          },
          "indices": 3,
          "material": 0,
          "mode": 4
        }
      ]
    },
    {
      "name": "Object_1",
      "primitives": [
        {
          "attributes": {
            "NORMAL": 5,
            "POSITION": 4,
            "TEXCOORD_0": 6
          },
          "indices": 7,
          "material": 0,
          "mode": 4
        }
      ]
    },
    {
      "name": "Object_2",
      "primitives": [
        {
          "attributes": {
            "NORMAL": 9,
            "POSITION": 8,
            "TEXCOORD_0": 10
          },
          "indices": 11,
          "material": 0,
          "mode": 4
        }
      ]
    },
    {
      "name": "Object_3",
      "primitives": [
        {
          "attributes": {
            "NORMAL": 13,
            "POSITION": 12,
            "TEXCOORD_0": 14
          },
          "indices": 15,
          "material": 0,
          "mode": 4
        }
      ]
    },
    {
      "name": "Object_4",
      "primitives": [
        {
          "attributes": {
            "NORMAL": 17,
            "POSITION": 16,
            "TEXCOORD_0": 18
          },
          "indices": 19,
          "material": 0,
          "mode": 4
        }
      ]
    },
    {
      "name": "Object_5",
      "primitives": [
        {
          "attributes": {
            "NORMAL": 21,
            "POSITION": 20,
            "TEXCOORD_0": 22
          },
          "indices": 23,
          "material": 1,
          "mode": 4
        }
      ]
    },
    {
      "name": "Object_6",
      "primitives": [
        {
          "attributes": {
            "NORMAL": 25,
            "POSITION": 24,
            "TEXCOORD_0": 26
          },
          "indices": 27,
          "material": 1,
          "mode": 4
        }
      ]
    },
    {
      "name": "Object_7",
      "primitives": [
        {
          "attributes": {
            "NORMAL": 29,
            "POSITION": 28,
            "TEXCOORD_0": 30
          },
          "indices": 31,
          "material": 1,
          "mode": 4
        }
      ]
    },
    {
      "name": "Object_8",
      "primitives": [
        {
          "attributes": {
            "NORMAL": 33,
            "POSITION": 32,
            "TEXCOORD_0": 34
          },
          "indices": 35,
          "material": 1,
          "mode": 4
        }
      ]
    },
    {
      "name": "Object_9",
      "primitives": [
        {
          "attributes": {
            "NORMAL": 37,
            "POSITION": 36,
            "TEXCOORD_0": 38
          },
          "indices": 39,
          "material": 2,
          "mode": 4
        }
      ]
    },
    {
      "name": "Object_10",
      "primitives": [
        {
          "attributes": {
            "NORMAL": 41,
            "POSITION": 40,
            "TEXCOORD_0": 42
          },
          "indices": 43,
          "material": 2,
          "mode": 4
        }
      ]
    },
    {
      "name": "Object_11",
      "primitives": [
        {
          "attributes": {
            "NORMAL": 45,
            "POSITION": 44,
            "TEXCOORD_0": 46
          },
          "indices": 47,
          "material": 2,
          "mode": 4
        }
      ]
    },
    {
      "name": "Object_12",
      "primitives": [
        {
          "attributes": {
            "NORMAL": 49,
            "POSITION": 48,
            "TEXCOORD_0": 50
          },
          "indices": 51,
          "material": 2,
          "mode": 4
        }
      ]
    }
  ],
  "nodes": [
    {
      "children": [
        1
      ],
      "matrix": [
        1.0,
        0.0,
        0.0,
        0.0,
        0.0,
        2.220446049250313e-16,
        -1.0,
        0.0,
        0.0,
        1.0,
        2.220446049250313e-16,
        0.0,
        0.0,
        0.0,
        0.0,
        1.0
      ],
      "name": "Sketchfab_model"
    },
    {
      "children": [
        2
      ],
      "matrix": [
        1.0,
        0.0,
        0.0,
        0.0,
        0.0,
        1.0,
        0.0,
        0.0,
        0.0,
        0.0,
        1.0,
        0.0,
        -5.303573131561279,
        -1.5055949687957764,
        0.02050499990582466,
        1.0
      ],
      "name": "Baskets.obj.cleaner.gles"
    },
    {
      "children": [
        3,
        4,
        5,
        6,
        7,
        8,
        9,
        10,
        11,
        12,
        13,
        14,
        15
      ],
      "name": "Object_2"
    },
    {
      "mesh": 0,
      "name": "Object_3"
    },
    {
      "mesh": 1,
      "name": "Object_4"
    },
    {
      "mesh": 2,
      "name": "Object_5"
    },
    {
      "mesh": 3,
      "name": "Object_6"
    },
    {
      "mesh": 4,
      "name": "Object_7"
    },
    {
      "mesh": 5,
      "name": "Object_8"
    },
    {
      "mesh": 6,
      "name": "Object_9"
    },
    {
      "mesh": 7,
      "name": "Object_10"
    },
    {
      "mesh": 8,
      "name": "Object_11"
    },
    {
      "mesh": 9,
      "name": "Object_12"
    },
    {
      "mesh": 10,
      "name": "Object_13"
    },
    {
      "mesh": 11,
      "name": "Object_14"
    },
    {
      "mesh": 12,
      "name": "Object_15"
    }
  ],
  "scene": 0,
  "scenes": [
    {
      "name": "Sketchfab_Scene",
      "nodes": [
        0
      ]
    }
  ]
}
