{
  "accessors": [
    {
      "bufferView": 2,
      "componentType": 5126,
      "count": 543,
      "max": [
        0.75,
        0.23072700202465057,
        0.4248819947242737
      ],
      "min": [
        -0.7505139708518982,
        -0.20000000298023224,
        0.0018469999777153134
      ],
      "type": "VEC3"
    },
    {
      "bufferView": 2,
      "byteOffset": 6516,
      "componentType": 5126,
      "count": 543,
      "max": [
        1.0,
        1.0,
        1.0
      ],
      "min": [
        -1.0,
        -1.0,
        -1.0
      ],
      "type": "VEC3"
    },
    {
      "bufferView": 3,
      "componentType": 5126,
      "count": 543,
      "max": [
        1.0,
        1.0,
        1.0,
        -1.0
      ],
      "min": [
        -0.32182034850120544,
        -1.0,
        -1.0,
        -1.0
      ],
      "type": "VEC4"
    },
    {
      "bufferView": 1,
      "componentType": 5126,
      "count": 543,
      "max": [
        0.986266016960144,
        0.9949439764022827
      ],
      "min": [
        0.0137339998036623,
        0.0137339998036623
      ],
      "type": "VEC2"
    },
    {
      "bufferView": 0,
      "componentType": 5125,
      "count": 1104,
      "type": "SCALAR"
    }
  ],
  "asset": {
    "extras": {
      "author": "Andrej Grave (https://sketchfab.com/andrej.grave)",
      "license": "CC-BY-4.0 (http://creativecommons.org/licenses/by/4.0/)",
      "source": "https://sketchfab.com/3d-models/small-tv-stand-4768d6fef8734c7aa99321f6b6b3c520",
      "title": "Small Tv Stand"
    },
    "generator": "Sketchfab-13.28.0",
    "version": "2.0"
  },
  "bufferViews": [
    {
      "buffer": 0,
      "byteLength": 4416,
      "name": "floatBufferViews",
      "target": 34963
    },
    {
      "buffer": 0,
      "byteLength": 4344,
      "byteOffset": 4416,
      "byteStride": 8,
      "name": "floatBufferViews",
      "target": 34962
    },
    {
      "buffer": 0,
      "byteLength": 13032,
      "byteOffset": 8760,
      "byteStride": 12,
      "name": "floatBufferViews",
      "target": 34962
    },
    {
      "buffer": 0,
      "byteLength": 8688,
      "byteOffset": 21792,
      "byteStride": 16,
      "name": "floatBufferViews",
      "target": 34962
    }
  ],
  "buffers": [
    {
      "byteLength": 30480,
      "uri": "scene.bin"
    }
  ],
  "images": [
    {
      "uri": "textures/m_wood_tv_stand_baseColor.jpeg"
    },
    {
      "uri": "textures/m_wood_tv_stand_metallicRoughness.png"
    },
    {
      "uri": "textures/m_wood_tv_stand_normal.png"
    }
  ],
  "materials": [
    {
      "doubleSided": true,
      "name": "m_wood_tv_stand",
      "normalTexture": {
        "index": 2
      },
      "occlusionTexture": {
        "index": 1
      },
      "pbrMetallicRoughness": {
        "baseColorFactor": [
          0.6091917112147943,
          0.6091917112147943,
          0.6091917112147943,
          1.0
        ],
        "baseColorTexture": {
          "index": 0
        },
        "metallicFactor": 0.0,
        "metallicRoughnessTexture": {
          "index": 1
        },
        "roughnessFactor": 0.4014053911105234
      }
    }
  ],
  "meshes": [
    {
      "name": "Object_0",
      "primitives": [
        {
          "attributes": {
            "NORMAL": 1,
            "POSITION": 0,
            "TANGENT": 2,
            "TEXCOORD_0": 3
          },
          "indices": 4,
          "material": 0,
          "mode": 4
        }
      ]
    }
  ],
  "nodes": [
    {
      "children": [
        1
      ],
      "matrix": [
        1.5025887489318848,
        0.0,
        0.0,
        0.0,
        0.0,
        3.336417251213774e-16,
        -1.5025887489318848,
        0.0,
        0.0,
        1.5025887489318848,
        3.336417251213774e-16,
        0.0,
        0.0,
        0.0,
        0.0,
        1.0
      ],
      "name": "Sketchfab_model"
    },
    {
      "children": [
        2
      ],
      "name": "tv_stand_room.obj.cleaner.materialmerger.gles"
    },
    {
      "mesh": 0,
      "name": "Object_2"
    }
  ],
  "samplers": [
    {
      "magFilter": 9729,
      "minFilter": 9987,
      "wrapS": 10497,
      "wrapT": 10497
    }
  ],
  "scene": 0,
  "scenes": [
    {
      "name": "Sketchfab_Scene",
      "nodes": [
        0
      ]
    }
  ],
  "textures": [
    {
      "sampler": 0,
      "source": 0
    },
    {
      "sampler": 0,
      "source": 1
    },
    {
      "sampler": 0,
      "source": 2
    }
  ]
}
