{
  "accessors": [
    {
      "bufferView": 2,
      "componentType": 5126,
      "count": 208,
      "max": [
        117.70335388183594,
        110.71893310546875,
        7.208793640136719
      ],
      "min": [
        -119.55316925048828,
        -116.38912200927734,
        -10.791206359863281
      ],
      "type": "VEC3"
    },
    {
      "bufferView": 2,
      "byteOffset": 2496,
      "componentType": 5126,
      "count": 208,
      "max": [
        1.0,
        1.0,
        1.0
      ],
      "min": [
        -1.0,
        -1.0,
        -1.0
      ],
      "type": "VEC3"
    },
    {
      "bufferView": 3,
      "componentType": 5126,
      "count": 208,
      "max": [
        0.04024546220898628,
        1.0,
        0.19902390241622925,
        1.0
      ],
      "min": [
        -1.0,
        -0.04031762853264809,
        -0.19902391731739044,
        1.0
      ],
      "type": "VEC4"
    },
    {
      "bufferView": 1,
      "componentType": 5126,
      "count": 208,
      "max": [
        0.9971303939819336,
        0.3659040927886963
      ],
      "min": [
        0.4529349207878113,
        0.006927967071533203
      ],
      "type": "VEC2"
    },
    {
      "bufferView": 0,
      "componentType": 5125,
      "count": 384,
      "type": "SCALAR"
    },
    {
      "bufferView": 2,
      "byteOffset": 4992,
      "componentType": 5126,
      "count": 320,
      "max": [
        1.421481966972351,
        103.48245239257813,
        -0.09629014879465103
      ],
      "min": [
        -110.93067169189453,
        -106.31754302978516,
        -5.861649990081787
      ],
      "type": "VEC3"
    },
    {
      "bufferView": 2,
      "byteOffset": 8832,
      "componentType": 5126,
      "count": 320,
      "max": [
        1.0,
        1.0,
        1.0
      ],
      "min": [
        -1.0,
        -1.0,
        -0.9999999403953552
      ],
      "type": "VEC3"
    },
    {
      "bufferView": 3,
      "byteOffset": 3328,
      "componentType": 5126,
      "count": 320,
      "max": [
        1.0,
        1.0,
        0.26086390018463135,
        1.0
      ],
      "min": [
        -1.0,
        -1.0,
        -0.2608640789985657,
        1.0
      ],
      "type": "VEC4"
    },
    {
      "bufferView": 1,
      "byteOffset": 1664,
      "componentType": 5126,
      "count": 320,
      "max": [
        0.9814285635948181,
        0.9992135763168335
      ],
      "min": [
        0.0017006730195134878,
        0.3669220209121704
      ],
      "type": "VEC2"
    },
    {
      "bufferView": 0,
      "byteOffset": 1536,
      "componentType": 5125,
      "count": 588,
      "type": "SCALAR"
    },
    {
      "bufferView": 2,
      "byteOffset": 12672,
      "componentType": 5126,
      "count": 24,
      "max": [
        -9.980857849121094,
        94.1771469116211,
        -1.9202549457550049
      ],
      "min": [
        -101.5962142944336,
        -97.01223754882813,
        -2.919630765914917
      ],
      "type": "VEC3"
    },
    {
      "bufferView": 2,
      "byteOffset": 12960,
      "componentType": 5126,
      "count": 24,
      "max": [
        0.9995954036712646,
        0.99915611743927,
        1.0
      ],
      "min": [
        -0.9995955228805542,
        -0.99915611743927,
        -1.0
      ],
      "type": "VEC3"
    },
    {
      "bufferView": 1,
      "byteOffset": 4224,
      "componentType": 5126,
      "count": 24,
      "max": [
        0.9990243911743164,
        0.9996742010116577
      ],
      "min": [
        0.0003257954667787999,
        0.006182193756103516
      ],
      "type": "VEC2"
    },
    {
      "bufferView": 0,
      "byteOffset": 3888,
      "componentType": 5125,
      "count": 36,
      "type": "SCALAR"
    },
    {
      "bufferView": 2,
      "byteOffset": 13248,
      "componentType": 5126,
      "count": 1032,
      "max": [
        -7.105427357601002e-15,
        104.9000015258789,
        14.703919410705566
      ],
      "min": [
        -112.35215759277344,
        -104.9000015258789,
        -1.9841383695602417
      ],
      "type": "VEC3"
    },
    {
      "bufferView": 2,
      "byteOffset": 25632,
      "componentType": 5126,
      "count": 1032,
      "max": [
        1.0,
        1.0,
        1.0
      ],
      "min": [
        -1.0,
        -1.0,
        -1.0
      ],
      "type": "VEC3"
    },
    {
      "bufferView": 3,
      "byteOffset": 8448,
      "componentType": 5126,
      "count": 1032,
      "max": [
        1.0,
        1.0,
        0.9672681093215942,
        1.0
      ],
      "min": [
        -1.0,
        -1.0,
        -1.0,
        -1.0
      ],
      "type": "VEC4"
    },
    {
      "bufferView": 1,
      "byteOffset": 4416,
      "componentType": 5126,
      "count": 1032,
      "max": [
        0.964836061000824,
        0.8170239329338074
      ],
      "min": [
        0.000786406802944839,
        0.0008112192153930664
      ],
      "type": "VEC2"
    },
    {
      "bufferView": 0,
      "byteOffset": 4032,
      "componentType": 5125,
      "count": 3654,
      "type": "SCALAR"
    },
    {
      "bufferView": 2,
      "byteOffset": 38016,
      "componentType": 5126,
      "count": 24,
      "max": [
        -9.541716575622559,
        95.4836654663086,
        1.9555425643920898
      ],
      "min": [
        -100.7425537109375,
        -95.4836654663086,
        0.9585035443305969
      ],
      "type": "VEC3"
    },
    {
      "bufferView": 2,
      "byteOffset": 38304,
      "componentType": 5126,
      "count": 24,
      "max": [
        0.9941564202308655,
        0.9999216794967651,
        1.0
      ],
      "min": [
        -0.994156539440155,
        -0.9999216794967651,
        -1.0
      ],
      "type": "VEC3"
    },
    {
      "bufferView": 1,
      "byteOffset": 12672,
      "componentType": 5126,
      "count": 24,
      "max": [
        0.9974454045295715,
        0.9996742010116577
      ],
      "min": [
        0.0003257954667787999,
        0.017142415046691895
      ],
      "type": "VEC2"
    },
    {
      "bufferView": 0,
      "byteOffset": 18648,
      "componentType": 5125,
      "count": 36,
      "type": "SCALAR"
    },
    {
      "bufferView": 2,
      "byteOffset": 38592,
      "componentType": 5126,
      "count": 208,
      "max": [
        117.70335388183594,
        110.71893310546875,
        7.208793640136719
      ],
      "min": [
        -119.55316925048828,
        -116.38912200927734,
        -10.791206359863281
      ],
      "type": "VEC3"
    },
    {
      "bufferView": 2,
      "byteOffset": 41088,
      "componentType": 5126,
      "count": 208,
      "max": [
        1.0,
        1.0,
        1.0
      ],
      "min": [
        -1.0,
        -1.0,
        -1.0
      ],
      "type": "VEC3"
    },
    {
      "bufferView": 3,
      "byteOffset": 24960,
      "componentType": 5126,
      "count": 208,
      "max": [
        0.04024546220898628,
        1.0,
        0.19902390241622925,
        1.0
      ],
      "min": [
        -1.0,
        -0.04031762853264809,
        -0.19902391731739044,
        1.0
      ],
      "type": "VEC4"
    },
    {
      "bufferView": 1,
      "byteOffset": 12864,
      "componentType": 5126,
      "count": 208,
      "max": [
        0.9971303939819336,
        0.3659040927886963
      ],
      "min": [
        0.4529349207878113,
        0.006927967071533203
      ],
      "type": "VEC2"
    },
    {
      "bufferView": 0,
      "byteOffset": 18792,
      "componentType": 5125,
      "count": 384,
      "type": "SCALAR"
    },
    {
      "bufferView": 2,
      "byteOffset": 43584,
      "componentType": 5126,
      "count": 320,
      "max": [
        1.421481966972351,
        103.48245239257813,
        -0.09629014879465103
      ],
      "min": [
        -110.93067169189453,
        -106.31754302978516,
        -5.861649990081787
      ],
      "type": "VEC3"
    },
    {
      "bufferView": 2,
      "byteOffset": 47424,
      "componentType": 5126,
      "count": 320,
      "max": [
        1.0,
        1.0,
        1.0
      ],
      "min": [
        -1.0,
        -1.0,
        -0.9999999403953552
      ],
      "type": "VEC3"
    },
    {
      "bufferView": 3,
      "byteOffset": 28288,
      "componentType": 5126,
      "count": 320,
      "max": [
        1.0,
        1.0,
        0.26086390018463135,
        1.0
      ],
      "min": [
        -1.0,
        -1.0,
        -0.2608640789985657,
        1.0
      ],
      "type": "VEC4"
    },
    {
      "bufferView": 1,
      "byteOffset": 14528,
      "componentType": 5126,
      "count": 320,
      "max": [
        0.9814285635948181,
        0.9992135763168335
      ],
      "min": [
        0.0017006730195134878,
        0.3669220209121704
      ],
      "type": "VEC2"
    },
    {
      "bufferView": 0,
      "byteOffset": 20328,
      "componentType": 5125,
      "count": 588,
      "type": "SCALAR"
    },
    {
      "bufferView": 2,
      "byteOffset": 51264,
      "componentType": 5126,
      "count": 24,
      "max": [
        -9.980857849121094,
        94.1771469116211,
        -1.9202549457550049
      ],
      "min": [
        -101.5962142944336,
        -97.01223754882813,
        -2.919630765914917
      ],
      "type": "VEC3"
    },
    {
      "bufferView": 2,
      "byteOffset": 51552,
      "componentType": 5126,
      "count": 24,
      "max": [
        0.9995954036712646,
        0.99915611743927,
        1.0
      ],
      "min": [
        -0.9995955228805542,
        -0.99915611743927,
        -1.0
      ],
      "type": "VEC3"
    },
    {
      "bufferView": 1,
      "byteOffset": 17088,
      "componentType": 5126,
      "count": 24,
      "max": [
        0.9990243911743164,
        0.9996742010116577
      ],
      "min": [
        0.0003257954667787999,
        0.006182193756103516
      ],
      "type": "VEC2"
    },
    {
      "bufferView": 0,
      "byteOffset": 22680,
      "componentType": 5125,
      "count": 36,
      "type": "SCALAR"
    },
    {
      "bufferView": 2,
      "byteOffset": 51840,
      "componentType": 5126,
      "count": 1032,
      "max": [
        110.00576782226563,
        103.48245239257813,
        12.250301361083984
      ],
      "min": [
        -2.3463878631591797,
        -106.31754302978516,
        -4.437755584716797
      ],
      "type": "VEC3"
    },
    {
      "bufferView": 2,
      "byteOffset": 64224,
      "componentType": 5126,
      "count": 1032,
      "max": [
        1.0,
        1.0,
        1.0
      ],
      "min": [
        -1.0,
        -1.0,
        -1.0
      ],
      "type": "VEC3"
    },
    {
      "bufferView": 3,
      "byteOffset": 33408,
      "componentType": 5126,
      "count": 1032,
      "max": [
        1.0,
        1.0,
        0.9672694206237793,
        1.0
      ],
      "min": [
        -1.0,
        -1.0,
        -1.0,
        -1.0
      ],
      "type": "VEC4"
    },
    {
      "bufferView": 1,
      "byteOffset": 17280,
      "componentType": 5126,
      "count": 1032,
      "max": [
        0.964836061000824,
        0.8170239329338074
      ],
      "min": [
        0.000786406802944839,
        0.0008112192153930664
      ],
      "type": "VEC2"
    },
    {
      "bufferView": 0,
      "byteOffset": 22824,
      "componentType": 5125,
      "count": 3654,
      "type": "SCALAR"
    },
    {
      "bufferView": 2,
      "byteOffset": 76608,
      "componentType": 5126,
      "count": 24,
      "max": [
        100.46405029296875,
        94.06611633300781,
        -0.4980746805667877
      ],
      "min": [
        9.263211250305176,
        -96.90120697021484,
        -1.495113730430603
      ],
      "type": "VEC3"
    },
    {
      "bufferView": 2,
      "byteOffset": 76896,
      "componentType": 5126,
      "count": 24,
      "max": [
        0.994156539440155,
        0.9999217987060547,
        1.0
      ],
      "min": [
        -0.9941564202308655,
        -0.9999217987060547,
        -1.0
      ],
      "type": "VEC3"
    },
    {
      "bufferView": 1,
      "byteOffset": 25536,
      "componentType": 5126,
      "count": 24,
      "max": [
        0.9974454045295715,
        0.9996742010116577
      ],
      "min": [
        0.0003257954667787999,
        0.017142415046691895
      ],
      "type": "VEC2"
    },
    {
      "bufferView": 0,
      "byteOffset": 37440,
      "componentType": 5125,
      "count": 36,
      "type": "SCALAR"
    }
  ],
  "asset": {
    "extras": {
      "author": "adventurer (https://sketchfab.com/ahmagh2e)",
      "license": "CC-BY-4.0 (http://creativecommons.org/licenses/by/4.0/)",
      "source": "https://sketchfab.com/3d-models/window-c6527c429ad04bc08698da1fd246d46c",
      "title": "Window"
    },
    "generator": "Sketchfab-16.3.0",
    "version": "2.0"
  },
  "bufferViews": [
    {
      "buffer": 0,
      "byteLength": 37584,
      "name": "floatBufferViews",
      "target": 34963
    },
    {
      "buffer": 0,
      "byteLength": 25728,
      "byteOffset": 37584,
      "byteStride": 8,
      "name": "floatBufferViews",
      "target": 34962
    },
    {
      "buffer": 0,
      "byteLength": 77184,
      "byteOffset": 63312,
      "byteStride": 12,
      "name": "floatBufferViews",
      "target": 34962
    },
    {
      "buffer": 0,
      "byteLength": 49920,
      "byteOffset": 140496,
      "byteStride": 16,
      "name": "floatBufferViews",
      "target": 34962
    }
  ],
  "buffers": [
    {
      "byteLength": 190416,
      "uri": "scene.bin"
    }
  ],
  "images": [
    {
      "uri": "textures/material_baseColor.png"
    },
    {
      "uri": "textures/material_metallicRoughness.png"
    },
    {
      "uri": "textures/material_normal.png"
    },
    {
      "uri": "textures/material_1_baseColor.png"
    }
  ],
  "materials": [
    {
      "doubleSided": true,
      "name": "material",
      "normalTexture": {
        "index": 2
      },
      "pbrMetallicRoughness": {
        "baseColorTexture": {
          "index": 0
        },
        "metallicRoughnessTexture": {
          "index": 1
        }
      }
    },
    {
      "alphaMode": "BLEND",
      "doubleSided": true,
      "name": "material_1",
      "pbrMetallicRoughness": {
        "baseColorFactor": [
          1.0,
          1.0,
          1.0,
          0.059428752544769654
        ],
        "baseColorTexture": {
          "index": 3
        },
        "roughnessFactor": 0.0
      }
    }
  ],
  "meshes": [
    {
      "name": "f_w_0",
      "primitives": [
        {
          "attributes": {
            "NORMAL": 1,
            "POSITION": 0,
            "TANGENT": 2,
            "TEXCOORD_0": 3
          },
          "indices": 4,
          "material": 0,
          "mode": 4
        }
      ]
    },
    {
      "name": "w_2_w_0",
      "primitives": [
        {
          "attributes": {
            "NORMAL": 6,
            "POSITION": 5,
            "TANGENT": 7,
            "TEXCOORD_0": 8
          },
          "indices": 9,
          "material": 0,
          "mode": 4
        }
      ]
    },
    {
      "name": "w_2_g_0",
      "primitives": [
        {
          "attributes": {
            "NORMAL": 11,
            "POSITION": 10,
            "TEXCOORD_0": 12
          },
          "indices": 13,
          "material": 1,
          "mode": 4
        }
      ]
    },
    {
      "name": "w_1_w_0",
      "primitives": [
        {
          "attributes": {
            "NORMAL": 15,
            "POSITION": 14,
            "TANGENT": 16,
            "TEXCOORD_0": 17
          },
          "indices": 18,
          "material": 0,
          "mode": 4
        }
      ]
    },
    {
      "name": "w_1_g_0",
      "primitives": [
        {
          "attributes": {
            "NORMAL": 20,
            "POSITION": 19,
            "TEXCOORD_0": 21
          },
          "indices": 22,
          "material": 1,
          "mode": 4
        }
      ]
    },
    {
      "name": "f_2_w_0",
      "primitives": [
        {
          "attributes": {
            "NORMAL": 24,
            "POSITION": 23,
            "TANGENT": 25,
            "TEXCOORD_0": 26
          },
          "indices": 27,
          "material": 0,
          "mode": 4
        }
      ]
    },
    {
      "name": "w_2_2_w_0",
      "primitives": [
        {
          "attributes": {
            "NORMAL": 29,
            "POSITION": 28,
            "TANGENT": 30,
            "TEXCOORD_0": 31
          },
          "indices": 32,
          "material": 0,
          "mode": 4
        }
      ]
    },
    {
      "name": "w_2_2_g_0",
      "primitives": [
        {
          "attributes": {
            "NORMAL": 34,
            "POSITION": 33,
            "TEXCOORD_0": 35
          },
          "indices": 36,
          "material": 1,
          "mode": 4
        }
      ]
    },
    {
      "name": "w_1_2_w_0",
      "primitives": [
        {
          "attributes": {
            "NORMAL": 38,
            "POSITION": 37,
            "TANGENT": 39,
            "TEXCOORD_0": 40
          },
          "indices": 41,
          "material": 0,
          "mode": 4
        }
      ]
    },
    {
      "name": "w_1_2_g_0",
      "primitives": [
        {
          "attributes": {
            "NORMAL": 43,
            "POSITION": 42,
            "TEXCOORD_0": 44
          },
          "indices": 45,
          "material": 1,
          "mode": 4
        }
      ]
    }
  ],
  "nodes": [
    {
      "children": [
        1
      ],
      "matrix": [
        1.0,
        0.0,
        0.0,
        0.0,
        0.0,
        2.220446049250313e-16,
        -1.0,
        0.0,
        0.0,
        1.0,
        2.220446049250313e-16,
        0.0,
        0.0,
        0.0,
        0.0,
        1.0
      ],
      "name": "Sketchfab_model"
    },
    {
      "children": [
        2
      ],
      "matrix": [
        0.009999999776482582,
        0.0,
        0.0,
        0.0,
        0.0,
        0.0,
        0.009999999776482582,
        0.0,
        0.0,
        -0.009999999776482582,
        0.0,
        0.0,
        0.0,
        0.0,
        0.0,
        1.0
      ],
      "name": "88bd5c33f0f447fb970a6f5571b3557d.fbx"
    },
    {
      "children": [
        3,
        12
      ],
      "name": "RootNode"
    },
    {
      "children": [
        4,
        6,
        9
      ],
      "matrix": [
        1.0,
        0.0,
        0.0,
        0.0,
        0.0,
        1.0,
        0.0,
        0.0,
        0.0,
        0.0,
        1.0,
        0.0,
        294.4582824707031,
        114.97157287597656,
        1.8152555227279663,
        1.0
      ],
      "name": "Null_1"
    },
    {
      "children": [
        5
      ],
      "matrix": [
        1.0,
        0.0,
        0.0,
        0.0,
        0.0,
        1.0,
        0.0,
        0.0,
        0.0,
        0.0,
        1.0,
        0.0,
        0.4624529778957367,
        1.417546033859253,
        -0.024049067869782448,
        1.0
      ],
      "name": "f"
    },
    {
      "mesh": 0,
      "name": "f_w_0"
    },
    {
      "children": [
        7,
        8
      ],
      "name": "w_2"
    },
    {
      "mesh": 1,
      "name": "w_2_w_0"
    },
    {
      "mesh": 2,
      "name": "w_2_g_0"
    },
    {
      "children": [
        10,
        11
      ],
      "matrix": [
        0.6561835638607794,
        0.0,
        -0.7546013056700648,
        0.0,
        0.0,
        1.0,
        0.0,
        0.0,
        0.7546013056700648,
        0.0,
        0.6561835638607794,
        0.0,
        110.00576782226563,
        -1.417546033859253,
        -2.4536173343658447,
        1.0
      ],
      "name": "w_1"
    },
    {
      "mesh": 3,
      "name": "w_1_w_0"
    },
    {
      "mesh": 4,
      "name": "w_1_g_0"
    },
    {
      "children": [
        13,
        15,
        18
      ],
      "matrix": [
        1.0,
        0.0,
        0.0,
        0.0,
        0.0,
        1.0,
        0.0,
        0.0,
        0.0,
        0.0,
        1.0,
        0.0,
        0.4624529778957367,
        114.97157287597656,
        1.8152555227279663,
        1.0
      ],
      "name": "Null"
    },
    {
      "children": [
        14
      ],
      "matrix": [
        1.0,
        0.0,
        0.0,
        0.0,
        0.0,
        1.0,
        0.0,
        0.0,
        0.0,
        0.0,
        1.0,
        0.0,
        0.4624529778957367,
        1.417546033859253,
        -0.024049067869782448,
        1.0
      ],
      "name": "f_2"
    },
    {
      "mesh": 5,
      "name": "f_2_w_0"
    },
    {
      "children": [
        16,
        17
      ],
      "name": "w_2_2"
    },
    {
      "mesh": 6,
      "name": "w_2_2_w_0"
    },
    {
      "mesh": 7,
      "name": "w_2_2_g_0"
    },
    {
      "children": [
        19,
        20
      ],
      "name": "w_1_2"
    },
    {
      "mesh": 8,
      "name": "w_1_2_w_0"
    },
    {
      "mesh": 9,
      "name": "w_1_2_g_0"
    }
  ],
  "samplers": [
    {
      "magFilter": 9729,
      "minFilter": 9987,
      "wrapS": 10497,
      "wrapT": 10497
    }
  ],
  "scene": 0,
  "scenes": [
    {
      "name": "Sketchfab_Scene",
      "nodes": [
        0
      ]
    }
  ],
  "textures": [
    {
      "sampler": 0,
      "source": 0
    },
    {
      "sampler": 0,
      "source": 1
    },
    {
      "sampler": 0,
      "source": 2
    },
    {
      "sampler": 0,
      "source": 3
    }
  ]
}
