{
  "accessors": [
    {
      "bufferView": 2,
      "componentType": 5126,
      "count": 224,
      "max": [
        398.0018615722656,
        339.8787841796875,
        874.5414428710938
      ],
      "min": [
        -421.5709228515625,
        -229.85818481445313,
        834.5083618164063
      ],
      "type": "VEC3"
    },
    {
      "bufferView": 2,
      "byteOffset": 2688,
      "componentType": 5126,
      "count": 224,
      "max": [
        0.9999569058418274,
        1.0,
        1.0
      ],
      "min": [
        -0.9999566078186035,
        -1.0,
        -1.0
      ],
      "type": "VEC3"
    },
    {
      "bufferView": 1,
      "componentType": 5126,
      "count": 224,
      "max": [
        0.9980506896972656,
        0.9993487596511841
      ],
      "min": [
        0.000651253794785589,
        0.24114084243774414
      ],
      "type": "VEC2"
    },
    {
      "bufferView": 0,
      "componentType": 5125,
      "count": 588,
      "type": "SCALAR"
    },
    {
      "bufferView": 2,
      "byteOffset": 5376,
      "componentType": 5126,
      "count": 204,
      "max": [
        384.8400573730469,
        248.33705139160156,
        157.79598999023438
      ],
      "min": [
        -407.11505126953125,
        -169.19435119628906,
        131.95895385742188
      ],
      "type": "VEC3"
    },
    {
      "bufferView": 2,
      "byteOffset": 7824,
      "componentType": 5126,
      "count": 204,
      "max": [
        0.021518876776099205,
        1.0,
        1.0
      ],
      "min": [
        -0.021960945799946785,
        -1.0,
        -1.0
      ],
      "type": "VEC3"
    },
    {
      "bufferView": 1,
      "byteOffset": 1792,
      "componentType": 5126,
      "count": 204,
      "max": [
        0.9877686500549316,
        0.9993479251861572
      ],
      "min": [
        0.0006520923925563693,
        0.001949310302734375
      ],
      "type": "VEC2"
    },
    {
      "bufferView": 0,
      "byteOffset": 2352,
      "componentType": 5125,
      "count": 696,
      "type": "SCALAR"
    },
    {
      "bufferView": 2,
      "byteOffset": 10272,
      "componentType": 5126,
      "count": 109,
      "max": [
        439.32403564453125,
        75.62732696533203,
        115.0421371459961
      ],
      "min": [
        -428.11767578125,
        -138.0900115966797,
        74.3002700805664
      ],
      "type": "VEC3"
    },
    {
      "bufferView": 2,
      "byteOffset": 11580,
      "componentType": 5126,
      "count": 109,
      "max": [
        1.0,
        1.0,
        0.9995604753494263
      ],
      "min": [
        -1.0,
        -1.0,
        -1.0
      ],
      "type": "VEC3"
    },
    {
      "bufferView": 1,
      "byteOffset": 3424,
      "componentType": 5126,
      "count": 109,
      "max": [
        0.97431480884552,
        0.9993486404418945
      ],
      "min": [
        0.0006513519329018891,
        0.001949310302734375
      ],
      "type": "VEC2"
    },
    {
      "bufferView": 0,
      "byteOffset": 5136,
      "componentType": 5125,
      "count": 276,
      "type": "SCALAR"
    },
    {
      "bufferView": 2,
      "byteOffset": 12888,
      "componentType": 5126,
      "count": 12,
      "max": [
        417.0226135253906,
        65.82035064697266,
        7.642057418823242
      ],
      "min": [
        -408.93878173828125,
        -116.63438415527344,
        -7.642057418823242
      ],
      "type": "VEC3"
    },
    {
      "bufferView": 2,
      "byteOffset": 13032,
      "componentType": 5126,
      "count": 12,
      "max": [
        0.0,
        1.0,
        1.0
      ],
      "min": [
        0.0,
        0.0,
        -1.0
      ],
      "type": "VEC3"
    },
    {
      "bufferView": 1,
      "byteOffset": 4296,
      "componentType": 5126,
      "count": 12,
      "max": [
        0.6504851579666138,
        0.9993487000465393
      ],
      "min": [
        0.0006512798136100173,
        0.001949310302734375
      ],
      "type": "VEC2"
    },
    {
      "bufferView": 0,
      "byteOffset": 6240,
      "componentType": 5125,
      "count": 18,
      "type": "SCALAR"
    },
    {
      "bufferView": 2,
      "byteOffset": 13176,
      "componentType": 5126,
      "count": 112,
      "max": [
        408.4544372558594,
        107.16879272460938,
        15.956438064575195
      ],
      "min": [
        -400.6696472167969,
        75.56803131103516,
        -15.956438064575195
      ],
      "type": "VEC3"
    },
    {
      "bufferView": 2,
      "byteOffset": 14520,
      "componentType": 5126,
      "count": 112,
      "max": [
        1.0,
        1.0,
        1.0
      ],
      "min": [
        -1.0,
        -1.0,
        -1.0
      ],
      "type": "VEC3"
    },
    {
      "bufferView": 1,
      "byteOffset": 4392,
      "componentType": 5126,
      "count": 112,
      "max": [
        0.9980506896972656,
        0.9993487596511841
      ],
      "min": [
        0.0006512317340821028,
        0.5496569275856018
      ],
      "type": "VEC2"
    },
    {
      "bufferView": 0,
      "byteOffset": 6312,
      "componentType": 5125,
      "count": 300,
      "type": "SCALAR"
    },
    {
      "bufferView": 2,
      "byteOffset": 15864,
      "componentType": 5126,
      "count": 38,
      "max": [
        407.0538024902344,
        182.7921142578125,
        15.956438064575195
      ],
      "min": [
        375.2975158691406,
        75.77268981933594,
        2.418531656265259
      ],
      "type": "VEC3"
    },
    {
      "bufferView": 2,
      "byteOffset": 16320,
      "componentType": 5126,
      "count": 38,
      "max": [
        1.0,
        1.0,
        1.0
      ],
      "min": [
        -0.9987018704414368,
        -1.0,
        -1.0
      ],
      "type": "VEC3"
    },
    {
      "bufferView": 1,
      "byteOffset": 5288,
      "componentType": 5126,
      "count": 38,
      "max": [
        0.8975586891174316,
        0.9993488192558289
      ],
      "min": [
        0.0006511918036267161,
        0.001949310302734375
      ],
      "type": "VEC2"
    },
    {
      "bufferView": 0,
      "byteOffset": 7512,
      "componentType": 5125,
      "count": 78,
      "type": "SCALAR"
    },
    {
      "bufferView": 2,
      "byteOffset": 16776,
      "componentType": 5126,
      "count": 40,
      "max": [
        -372.6154479980469,
        182.7921142578125,
        15.956438064575195
      ],
      "min": [
        -398.87274169921875,
        75.77268981933594,
        2.418531656265259
      ],
      "type": "VEC3"
    },
    {
      "bufferView": 2,
      "byteOffset": 17256,
      "componentType": 5126,
      "count": 40,
      "max": [
        0.9996863007545471,
        1.0,
        1.0
      ],
      "min": [
        -1.0,
        -1.0,
        -1.0
      ],
      "type": "VEC3"
    },
    {
      "bufferView": 1,
      "byteOffset": 5592,
      "componentType": 5126,
      "count": 40,
      "max": [
        0.9980506896972656,
        0.9993488192558289
      ],
      "min": [
        0.0006512033869512379,
        0.14409410953521729
      ],
      "type": "VEC2"
    },
    {
      "bufferView": 0,
      "byteOffset": 7824,
      "componentType": 5125,
      "count": 84,
      "type": "SCALAR"
    },
    {
      "bufferView": 2,
      "byteOffset": 17736,
      "componentType": 5126,
      "count": 88,
      "max": [
        496.05328369140625,
        248.33705139160156,
        75.52954864501953
      ],
      "min": [
        -533.4927368164063,
        202.55563354492188,
        68.45318603515625
      ],
      "type": "VEC3"
    },
    {
      "bufferView": 2,
      "byteOffset": 18792,
      "componentType": 5126,
      "count": 88,
      "max": [
        1.5154066612490695e-16,
        1.0,
        1.0
      ],
      "min": [
        -2.020542303231358e-16,
        -1.0,
        -1.0
      ],
      "type": "VEC3"
    },
    {
      "bufferView": 1,
      "byteOffset": 5912,
      "componentType": 5126,
      "count": 88,
      "max": [
        0.33211347460746765,
        0.9993487596511841
      ],
      "min": [
        0.0006512546679005027,
        0.001949310302734375
      ],
      "type": "VEC2"
    },
    {
      "bufferView": 0,
      "byteOffset": 8160,
      "componentType": 5125,
      "count": 240,
      "type": "SCALAR"
    },
    {
      "bufferView": 2,
      "byteOffset": 19848,
      "componentType": 5126,
      "count": 88,
      "max": [
        503.9739990234375,
        248.33705139160156,
        55.86495590209961
      ],
      "min": [
        -508.7763671875,
        202.55563354492188,
        50.6309700012207
      ],
      "type": "VEC3"
    },
    {
      "bufferView": 2,
      "byteOffset": 20904,
      "componentType": 5126,
      "count": 88,
      "max": [
        1.6784619594334004e-15,
        1.0,
        1.0
      ],
      "min": [
        -1.6784619594334004e-15,
        -1.0,
        -1.0
      ],
      "type": "VEC3"
    },
    {
      "bufferView": 1,
      "byteOffset": 6616,
      "componentType": 5126,
      "count": 88,
      "max": [
        0.35614052414894104,
        0.9993487596511841
      ],
      "min": [
        0.0006512373220175505,
        0.001949310302734375
      ],
      "type": "VEC2"
    },
    {
      "bufferView": 0,
      "byteOffset": 9120,
      "componentType": 5125,
      "count": 240,
      "type": "SCALAR"
    },
    {
      "bufferView": 2,
      "byteOffset": 21960,
      "componentType": 5126,
      "count": 88,
      "max": [
        379.0989074707031,
        248.33705139160156,
        75.52954864501953
      ],
      "min": [
        -407.7112731933594,
        202.55563354492188,
        68.45318603515625
      ],
      "type": "VEC3"
    },
    {
      "bufferView": 2,
      "byteOffset": 23016,
      "componentType": 5126,
      "count": 88,
      "max": [
        1.982918952598894e-16,
        1.0,
        1.0
      ],
      "min": [
        -1.982918952598894e-16,
        -1.0,
        -1.0
      ],
      "type": "VEC3"
    },
    {
      "bufferView": 1,
      "byteOffset": 7320,
      "componentType": 5126,
      "count": 88,
      "max": [
        0.3781122863292694,
        0.9993487596511841
      ],
      "min": [
        0.0006512546679005027,
        0.001949310302734375
      ],
      "type": "VEC2"
    },
    {
      "bufferView": 0,
      "byteOffset": 10080,
      "componentType": 5125,
      "count": 240,
      "type": "SCALAR"
    },
    {
      "bufferView": 2,
      "byteOffset": 24072,
      "componentType": 5126,
      "count": 88,
      "max": [
        379.0989074707031,
        248.33705139160156,
        75.52954864501953
      ],
      "min": [
        -407.7112731933594,
        202.55563354492188,
        68.45318603515625
      ],
      "type": "VEC3"
    },
    {
      "bufferView": 2,
      "byteOffset": 25128,
      "componentType": 5126,
      "count": 88,
      "max": [
        1.982918952598894e-16,
        1.0,
        1.0
      ],
      "min": [
        -2.6438921132637227e-16,
        -1.0,
        -1.0
      ],
      "type": "VEC3"
    },
    {
      "bufferView": 1,
      "byteOffset": 8024,
      "componentType": 5126,
      "count": 88,
      "max": [
        0.3781122863292694,
        0.9993487596511841
      ],
      "min": [
        0.0006512546679005027,
        0.001949310302734375
      ],
      "type": "VEC2"
    },
    {
      "bufferView": 0,
      "byteOffset": 11040,
      "componentType": 5125,
      "count": 240,
      "type": "SCALAR"
    },
    {
      "bufferView": 2,
      "byteOffset": 26184,
      "componentType": 5126,
      "count": 88,
      "max": [
        379.0989074707031,
        248.33705139160156,
        75.52954864501953
      ],
      "min": [
        -407.7112731933594,
        202.55563354492188,
        68.45318603515625
      ],
      "type": "VEC3"
    },
    {
      "bufferView": 2,
      "byteOffset": 27240,
      "componentType": 5126,
      "count": 88,
      "max": [
        1.982918952598894e-16,
        1.0,
        1.0
      ],
      "min": [
        -2.6438921132637227e-16,
        -1.0,
        -1.0
      ],
      "type": "VEC3"
    },
    {
      "bufferView": 1,
      "byteOffset": 8728,
      "componentType": 5126,
      "count": 88,
      "max": [
        0.3781122863292694,
        0.9993487596511841
      ],
      "min": [
        0.0006512546679005027,
        0.001949310302734375
      ],
      "type": "VEC2"
    },
    {
      "bufferView": 0,
      "byteOffset": 12000,
      "componentType": 5125,
      "count": 240,
      "type": "SCALAR"
    },
    {
      "bufferView": 2,
      "byteOffset": 28296,
      "componentType": 5126,
      "count": 628,
      "max": [
        114.02652740478516,
        113.60186004638672,
        31.934043884277344
      ],
      "min": [
        -109.4896240234375,
        -103.06784057617188,
        -23.62236213684082
      ],
      "type": "VEC3"
    },
    {
      "bufferView": 2,
      "byteOffset": 35832,
      "componentType": 5126,
      "count": 628,
      "max": [
        1.0,
        1.0,
        1.0
      ],
      "min": [
        -1.0,
        -0.999983012676239,
        -1.0
      ],
      "type": "VEC3"
    },
    {
      "bufferView": 1,
      "byteOffset": 9432,
      "componentType": 5126,
      "count": 628,
      "max": [
        0.9089073538780212,
        0.9993461966514587
      ],
      "min": [
        0.0006537970621138811,
        0.001949310302734375
      ],
      "type": "VEC2"
    },
    {
      "bufferView": 0,
      "byteOffset": 12960,
      "componentType": 5125,
      "count": 1752,
      "type": "SCALAR"
    },
    {
      "bufferView": 2,
      "byteOffset": 43368,
      "componentType": 5126,
      "count": 628,
      "max": [
        114.02652740478516,
        113.60186004638672,
        31.934043884277344
      ],
      "min": [
        -109.4896240234375,
        -103.06784057617188,
        -23.62236213684082
      ],
      "type": "VEC3"
    },
    {
      "bufferView": 2,
      "byteOffset": 50904,
      "componentType": 5126,
      "count": 628,
      "max": [
        1.0,
        1.0,
        1.0
      ],
      "min": [
        -1.0,
        -0.999983012676239,
        -1.0
      ],
      "type": "VEC3"
    },
    {
      "bufferView": 1,
      "byteOffset": 14456,
      "componentType": 5126,
      "count": 628,
      "max": [
        0.9089073538780212,
        0.9993461966514587
      ],
      "min": [
        0.0006537970621138811,
        0.001949310302734375
      ],
      "type": "VEC2"
    },
    {
      "bufferView": 0,
      "byteOffset": 19968,
      "componentType": 5125,
      "count": 1752,
      "type": "SCALAR"
    },
    {
      "bufferView": 2,
      "byteOffset": 58440,
      "componentType": 5126,
      "count": 628,
      "max": [
        114.02652740478516,
        113.60186004638672,
        31.934043884277344
      ],
      "min": [
        -109.4896240234375,
        -103.06784057617188,
        -23.62236213684082
      ],
      "type": "VEC3"
    },
    {
      "bufferView": 2,
      "byteOffset": 65976,
      "componentType": 5126,
      "count": 628,
      "max": [
        1.0,
        1.0,
        1.0
      ],
      "min": [
        -1.0,
        -0.999983012676239,
        -1.0
      ],
      "type": "VEC3"
    },
    {
      "bufferView": 1,
      "byteOffset": 19480,
      "componentType": 5126,
      "count": 628,
      "max": [
        0.9089073538780212,
        0.9993461966514587
      ],
      "min": [
        0.0006537970621138811,
        0.001949310302734375
      ],
      "type": "VEC2"
    },
    {
      "bufferView": 0,
      "byteOffset": 26976,
      "componentType": 5125,
      "count": 1752,
      "type": "SCALAR"
    },
    {
      "bufferView": 2,
      "byteOffset": 73512,
      "componentType": 5126,
      "count": 628,
      "max": [
        114.02652740478516,
        113.60186004638672,
        31.934043884277344
      ],
      "min": [
        -109.4896240234375,
        -103.06784057617188,
        -23.62236213684082
      ],
      "type": "VEC3"
    },
    {
      "bufferView": 2,
      "byteOffset": 81048,
      "componentType": 5126,
      "count": 628,
      "max": [
        1.0,
        1.0,
        1.0
      ],
      "min": [
        -1.0,
        -0.999983012676239,
        -1.0
      ],
      "type": "VEC3"
    },
    {
      "bufferView": 1,
      "byteOffset": 24504,
      "componentType": 5126,
      "count": 628,
      "max": [
        0.9089073538780212,
        0.9993461966514587
      ],
      "min": [
        0.0006537970621138811,
        0.001949310302734375
      ],
      "type": "VEC2"
    },
    {
      "bufferView": 0,
      "byteOffset": 33984,
      "componentType": 5125,
      "count": 1752,
      "type": "SCALAR"
    },
    {
      "bufferView": 2,
      "byteOffset": 88584,
      "componentType": 5126,
      "count": 160,
      "max": [
        366.5957946777344,
        71.6861572265625,
        442.5176696777344
      ],
      "min": [
        -366.5957946777344,
        -71.6861572265625,
        -442.5176696777344
      ],
      "type": "VEC3"
    },
    {
      "bufferView": 2,
      "byteOffset": 90504,
      "componentType": 5126,
      "count": 160,
      "max": [
        0.9818093180656433,
        0.9800561666488647,
        0.9862248301506042
      ],
      "min": [
        -0.9818093180656433,
        -0.9800561666488647,
        -0.9862248301506042
      ],
      "type": "VEC3"
    },
    {
      "bufferView": 1,
      "byteOffset": 29528,
      "componentType": 5126,
      "count": 160,
      "max": [
        0.9980506896972656,
        0.999347984790802
      ],
      "min": [
        0.0006520102615468204,
        0.08836686611175537
      ],
      "type": "VEC2"
    },
    {
      "bufferView": 0,
      "byteOffset": 40992,
      "componentType": 5125,
      "count": 612,
      "type": "SCALAR"
    },
    {
      "bufferView": 2,
      "byteOffset": 92424,
      "componentType": 5126,
      "count": 405,
      "max": [
        414.2394714355469,
        -82.32789611816406,
        440.5827331542969
      ],
      "min": [
        -460.8686828613281,
        -394.0544128417969,
        -455.92657470703125
      ],
      "type": "VEC3"
    },
    {
      "bufferView": 2,
      "byteOffset": 97284,
      "componentType": 5126,
      "count": 405,
      "max": [
        0.9992023706436157,
        0.9999972581863403,
        0.9885355830192566
      ],
      "min": [
        -0.9556163549423218,
        -1.0,
        -0.9905389547348022
      ],
      "type": "VEC3"
    },
    {
      "bufferView": 1,
      "byteOffset": 30808,
      "componentType": 5126,
      "count": 405,
      "max": [
        0.6639584898948669,
        0.9993485808372498
      ],
      "min": [
        0.00065140041988343,
        0.001949310302734375
      ],
      "type": "VEC2"
    },
    {
      "bufferView": 0,
      "byteOffset": 43440,
      "componentType": 5125,
      "count": 1680,
      "type": "SCALAR"
    },
    {
      "bufferView": 2,
      "byteOffset": 102144,
      "componentType": 5126,
      "count": 628,
      "max": [
        114.02652740478516,
        113.60186004638672,
        31.934043884277344
      ],
      "min": [
        -109.4896240234375,
        -103.06784057617188,
        -23.62236213684082
      ],
      "type": "VEC3"
    },
    {
      "bufferView": 2,
      "byteOffset": 109680,
      "componentType": 5126,
      "count": 628,
      "max": [
        1.0,
        1.0,
        1.0
      ],
      "min": [
        -1.0,
        -0.999983012676239,
        -1.0
      ],
      "type": "VEC3"
    },
    {
      "bufferView": 1,
      "byteOffset": 34048,
      "componentType": 5126,
      "count": 628,
      "max": [
        0.9089073538780212,
        0.9993461966514587
      ],
      "min": [
        0.0006537970621138811,
        0.001949310302734375
      ],
      "type": "VEC2"
    },
    {
      "bufferView": 0,
      "byteOffset": 50160,
      "componentType": 5125,
      "count": 1752,
      "type": "SCALAR"
    }
  ],
  "asset": {
    "extras": {
      "author": "Nico Perry (https://sketchfab.com/nicoperry.info)",
      "license": "CC-BY-4.0 (http://creativecommons.org/licenses/by/4.0/)",
      "source": "https://sketchfab.com/3d-models/low-poly-vintage-bedframe-a43da6c283e246799e2525a2578dfdff",
      "title": "Low Poly Vintage Bedframe"
    },
    "generator": "Sketchfab-16.82.0",
    "version": "2.0"
  },
  "bufferViews": [
    {
      "buffer": 0,
      "byteLength": 57168,
      "name": "floatBufferViews",
      "target": 34963
    },
    {
      "buffer": 0,
      "byteLength": 39072,
      "byteOffset": 57168,
      "byteStride": 8,
      "name": "floatBufferViews",
      "target": 34962
    },
    {
      "buffer": 0,
      "byteLength": 117216,
      "byteOffset": 96240,
      "byteStride": 12,
      "name": "floatBufferViews",
      "target": 34962
    }
  ],
  "buffers": [
    {
      "byteLength": 213456,
      "uri": "scene.bin"
    }
  ],
  "images": [
    {
      "uri": "textures/Frame12_baseColor.png"
    },
    {
      "uri": "textures/Frame11_baseColor.png"
    },
    {
      "uri": "textures/Frame10_baseColor.png"
    },
    {
      "uri": "textures/Frame9_baseColor.png"
    },
    {
      "uri": "textures/Frame8_baseColor.png"
    },
    {
      "uri": "textures/Frame7_baseColor.png"
    },
    {
      "uri": "textures/Frame6_baseColor.png"
    },
    {
      "uri": "textures/Frame5_baseColor.png"
    },
    {
      "uri": "textures/Frame4_baseColor.png"
    },
    {
      "uri": "textures/Frame3_baseColor.png"
    },
    {
      "uri": "textures/Frame2_baseColor.png"
    },
    {
      "uri": "textures/Frame1_baseColor.png"
    },
    {
      "uri": "textures/Pillows1_baseColor.png"
    },
    {
      "uri": "textures/Mattress_baseColor.png"
    },
    {
      "uri": "textures/Blanket_baseColor.png"
    }
  ],
  "materials": [
    {
      "doubleSided": true,
      "name": "Frame12",
      "pbrMetallicRoughness": {
        "baseColorTexture": {
          "index": 0
        },
        "metallicFactor": 0.0,
        "roughnessFactor": 0.9524317153998911
      }
    },
    {
      "doubleSided": true,
      "name": "Frame11",
      "pbrMetallicRoughness": {
        "baseColorTexture": {
          "index": 1
        },
        "metallicFactor": 0.0,
        "roughnessFactor": 0.9524317153998911
      }
    },
    {
      "doubleSided": true,
      "name": "Frame10",
      "pbrMetallicRoughness": {
        "baseColorTexture": {
          "index": 2
        },
        "metallicFactor": 0.0,
        "roughnessFactor": 0.9524317153998911
      }
    },
    {
      "doubleSided": true,
      "name": "Frame9",
      "pbrMetallicRoughness": {
        "baseColorTexture": {
          "index": 3
        },
        "metallicFactor": 0.0,
        "roughnessFactor": 0.9524317153998911
      }
    },
    {
      "doubleSided": true,
      "name": "Frame8",
      "pbrMetallicRoughness": {
        "baseColorTexture": {
          "index": 4
        },
        "metallicFactor": 0.0,
        "roughnessFactor": 0.9524317153998911
      }
    },
    {
      "doubleSided": true,
      "name": "Frame7",
      "pbrMetallicRoughness": {
        "baseColorTexture": {
          "index": 5
        },
        "metallicFactor": 0.0,
        "roughnessFactor": 0.9524317153998911
      }
    },
    {
      "doubleSided": true,
      "name": "Frame6",
      "pbrMetallicRoughness": {
        "baseColorTexture": {
          "index": 6
        },
        "metallicFactor": 0.0,
        "roughnessFactor": 0.9524317153998911
      }
    },
    {
      "doubleSided": true,
      "name": "Frame5",
      "pbrMetallicRoughness": {
        "baseColorTexture": {
          "index": 7
        },
        "metallicFactor": 0.0,
        "roughnessFactor": 0.9524317153998911
      }
    },
    {
      "doubleSided": true,
      "name": "Frame4",
      "pbrMetallicRoughness": {
        "baseColorTexture": {
          "index": 8
        },
        "metallicFactor": 0.0,
        "roughnessFactor": 0.9524317153998911
      }
    },
    {
      "doubleSided": true,
      "name": "Frame3",
      "pbrMetallicRoughness": {
        "baseColorTexture": {
          "index": 9
        },
        "metallicFactor": 0.0,
        "roughnessFactor": 0.9524317153998911
      }
    },
    {
      "doubleSided": true,
      "name": "Frame2",
      "pbrMetallicRoughness": {
        "baseColorTexture": {
          "index": 10
        },
        "metallicFactor": 0.0,
        "roughnessFactor": 0.9524317153998911
      }
    },
    {
      "doubleSided": true,
      "name": "Frame1",
      "pbrMetallicRoughness": {
        "baseColorTexture": {
          "index": 11
        },
        "metallicFactor": 0.0,
        "roughnessFactor": 0.9524317153998911
      }
    },
    {
      "doubleSided": true,
      "name": "Pillows1",
      "pbrMetallicRoughness": {
        "baseColorTexture": {
          "index": 12
        },
        "metallicFactor": 0.0,
        "roughnessFactor": 0.9524317153998911
      }
    },
    {
      "doubleSided": true,
      "name": "Mattress",
      "pbrMetallicRoughness": {
        "baseColorTexture": {
          "index": 13
        },
        "metallicFactor": 0.0,
        "roughnessFactor": 0.9524317153998911
      }
    },
    {
      "doubleSided": true,
      "name": "Blanket",
      "pbrMetallicRoughness": {
        "baseColorTexture": {
          "index": 14
        },
        "metallicFactor": 0.0,
        "roughnessFactor": 0.9524317153998911
      }
    }
  ],
  "meshes": [
    {
      "name": "Frame12_Frame12_0",
      "primitives": [
        {
          "attributes": {
            "NORMAL": 1,
            "POSITION": 0,
            "TEXCOORD_0": 2
          },
          "indices": 3,
          "material": 0,
          "mode": 4
        }
      ]
    },
    {
      "name": "Frame11_Frame11_0",
      "primitives": [
        {
          "attributes": {
            "NORMAL": 5,
            "POSITION": 4,
            "TEXCOORD_0": 6
          },
          "indices": 7,
          "material": 1,
          "mode": 4
        }
      ]
    },
    {
      "name": "Frame10_Frame10_0",
      "primitives": [
        {
          "attributes": {
            "NORMAL": 9,
            "POSITION": 8,
            "TEXCOORD_0": 10
          },
          "indices": 11,
          "material": 2,
          "mode": 4
        }
      ]
    },
    {
      "name": "Frame9_Frame9_0",
      "primitives": [
        {
          "attributes": {
            "NORMAL": 13,
            "POSITION": 12,
            "TEXCOORD_0": 14
          },
          "indices": 15,
          "material": 3,
          "mode": 4
        }
      ]
    },
    {
      "name": "Frame8_Frame8_0",
      "primitives": [
        {
          "attributes": {
            "NORMAL": 17,
            "POSITION": 16,
            "TEXCOORD_0": 18
          },
          "indices": 19,
          "material": 4,
          "mode": 4
        }
      ]
    },
    {
      "name": "Frame7_Frame7_0",
      "primitives": [
        {
          "attributes": {
            "NORMAL": 21,
            "POSITION": 20,
            "TEXCOORD_0": 22
          },
          "indices": 23,
          "material": 5,
          "mode": 4
        }
      ]
    },
    {
      "name": "Frame6_Frame6_0",
      "primitives": [
        {
          "attributes": {
            "NORMAL": 25,
            "POSITION": 24,
            "TEXCOORD_0": 26
          },
          "indices": 27,
          "material": 6,
          "mode": 4
        }
      ]
    },
    {
      "name": "Frame5_Frame5_0",
      "primitives": [
        {
          "attributes": {
            "NORMAL": 29,
            "POSITION": 28,
            "TEXCOORD_0": 30
          },
          "indices": 31,
          "material": 7,
          "mode": 4
        }
      ]
    },
    {
      "name": "Frame4_Frame4_0",
      "primitives": [
        {
          "attributes": {
            "NORMAL": 33,
            "POSITION": 32,
            "TEXCOORD_0": 34
          },
          "indices": 35,
          "material": 8,
          "mode": 4
        }
      ]
    },
    {
      "name": "Frame3_Frame3_0",
      "primitives": [
        {
          "attributes": {
            "NORMAL": 37,
            "POSITION": 36,
            "TEXCOORD_0": 38
          },
          "indices": 39,
          "material": 9,
          "mode": 4
        }
      ]
    },
    {
      "name": "Frame2_Frame2_0",
      "primitives": [
        {
          "attributes": {
            "NORMAL": 41,
            "POSITION": 40,
            "TEXCOORD_0": 42
          },
          "indices": 43,
          "material": 10,
          "mode": 4
        }
      ]
    },
    {
      "name": "Frame1_Frame1_0",
      "primitives": [
        {
          "attributes": {
            "NORMAL": 45,
            "POSITION": 44,
            "TEXCOORD_0": 46
          },
          "indices": 47,
          "material": 11,
          "mode": 4
        }
      ]
    },
    {
      "name": "Pillows1_3_Pillows1_0",
      "primitives": [
        {
          "attributes": {
            "NORMAL": 49,
            "POSITION": 48,
            "TEXCOORD_0": 50
          },
          "indices": 51,
          "material": 12,
          "mode": 4
        }
      ]
    },
    {
      "name": "Pillows1_2_Pillows1_0",
      "primitives": [
        {
          "attributes": {
            "NORMAL": 53,
            "POSITION": 52,
            "TEXCOORD_0": 54
          },
          "indices": 55,
          "material": 12,
          "mode": 4
        }
      ]
    },
    {
      "name": "Pillows1_1_Pillows1_0",
      "primitives": [
        {
          "attributes": {
            "NORMAL": 57,
            "POSITION": 56,
            "TEXCOORD_0": 58
          },
          "indices": 59,
          "material": 12,
          "mode": 4
        }
      ]
    },
    {
      "name": "Pillows1_Pillows1_0",
      "primitives": [
        {
          "attributes": {
            "NORMAL": 61,
            "POSITION": 60,
            "TEXCOORD_0": 62
          },
          "indices": 63,
          "material": 12,
          "mode": 4
        }
      ]
    },
    {
      "name": "Mattress_Mattress_0",
      "primitives": [
        {
          "attributes": {
            "NORMAL": 65,
            "POSITION": 64,
            "TEXCOORD_0": 66
          },
          "indices": 67,
          "material": 13,
          "mode": 4
        }
      ]
    },
    {
      "name": "Blanket_Blanket_0",
      "primitives": [
        {
          "attributes": {
            "NORMAL": 69,
            "POSITION": 68,
            "TEXCOORD_0": 70
          },
          "indices": 71,
          "material": 14,
          "mode": 4
        }
      ]
    },
    {
      "name": "Pillows1_2_2_Pillows1_0",
      "primitives": [
        {
          "attributes": {
            "NORMAL": 73,
            "POSITION": 72,
            "TEXCOORD_0": 74
          },
          "indices": 75,
          "material": 12,
          "mode": 4
        }
      ]
    }
  ],
  "nodes": [
    {
      "children": [
        1
      ],
      "matrix": [
        1.0,
        0.0,
        0.0,
        0.0,
        0.0,
        2.220446049250313e-16,
        -1.0,
        0.0,
        0.0,
        1.0,
        2.220446049250313e-16,
        0.0,
        0.0,
        0.0,
        0.0,
        1.0
      ],
      "name": "Sketchfab_model"
    },
    {
      "children": [
        2
      ],
      "matrix": [
        0.009999999776482582,
        0.0,
        0.0,
        0.0,
        0.0,
        0.0,
        0.009999999776482582,
        0.0,
        0.0,
        -0.009999999776482582,
        0.0,
        0.0,
        0.0,
        0.0,
        0.0,
        1.0
      ],
      "name": "becbbfc7b9c84f2ba2f331026eede71f.fbx"
    },
    {
      "children": [
        3,
        5
      ],
      "name": "RootNode"
    },
    {
      "children": [
        4
      ],
      "matrix": [
        0.09880949486150847,
        -0.17519490073271293,
        -0.979562877248045,
        0.0,
        0.017582860181124357,
        0.9845337712629542,
        -0.174310344703337,
        0.0,
        0.994951017263194,
        -9.71445146547012e-17,
        0.1003617120566177,
        0.0,
        2314.263427734375,
        1127.2110595703125,
        4779.55517578125,
        1.0
      ],
      "name": "CINEMA_4D_Editor"
    },
    {
      "name": "Object_4"
    },
    {
      "children": [
        6,
        31
      ],
      "matrix": [
        -1.0,
        1.224646799147353e-16,
        -1.2246467991473535e-16,
        0.0,
        -1.224646799147353e-16,
        -1.0,
        -1.224646799147353e-16,
        0.0,
        -1.2246467991473535e-16,
        -1.224646799147353e-16,
        1.0,
        0.0,
        3464.637939453125,
        310.7651672363281,
        1507.91796875,
        1.0
      ],
      "name": "Bed_frame_Nico_Perry"
    },
    {
      "children": [
        7,
        9,
        11,
        13,
        15,
        17,
        19,
        21,
        23,
        25,
        27,
        29
      ],
      "matrix": [
        1.0,
        -9.654305461538043e-33,
        0.0,
        0.0,
        9.654305461538043e-33,
        1.0,
        0.0,
        0.0,
        0.0,
        0.0,
        1.0,
        0.0,
        26.78917121887207,
        41.3369140625,
        -43.52662658691406,
        1.0
      ],
      "name": "Frame"
    },
    {
      "children": [
        8
      ],
      "matrix": [
        1.0,
        -9.654305461538043e-33,
        0.0,
        0.0,
        9.654305461538043e-33,
        1.0,
        0.0,
        0.0,
        0.0,
        0.0,
        1.0,
        0.0,
        20.383350372314453,
        -122.0608901977539,
        -1388.52294921875,
        1.0
      ],
      "name": "Frame12"
    },
    {
      "mesh": 0,
      "name": "Frame12_Frame12_0"
    },
    {
      "children": [
        10
      ],
      "matrix": [
        1.0,
        -9.654305461538043e-33,
        0.0,
        0.0,
        9.654305461538043e-33,
        1.0,
        0.0,
        0.0,
        0.0,
        0.0,
        1.0,
        0.0,
        20.383350372314453,
        -168.24635314941406,
        -662.8576049804688,
        1.0
      ],
      "name": "Frame11"
    },
    {
      "mesh": 1,
      "name": "Frame11_Frame11_0"
    },
    {
      "children": [
        12
      ],
      "matrix": [
        1.0,
        -9.654305461538043e-33,
        0.0,
        0.0,
        9.654305461538043e-33,
        1.0,
        0.0,
        0.0,
        0.0,
        0.0,
        1.0,
        0.0,
        -4.927481651306152,
        36.0974235534668,
        377.1573791503906,
        1.0
      ],
      "name": "Frame10"
    },
    {
      "mesh": 2,
      "name": "Frame10_Frame10_0"
    },
    {
      "children": [
        14
      ],
      "matrix": [
        1.0,
        -9.654305461538043e-33,
        0.0,
        0.0,
        9.654305461538043e-33,
        1.0,
        0.0,
        0.0,
        0.0,
        0.0,
        1.0,
        0.0,
        -4.927481651306152,
        36.0974235534668,
        471.15509033203125,
        1.0
      ],
      "name": "Frame9"
    },
    {
      "mesh": 3,
      "name": "Frame9_Frame9_0"
    },
    {
      "children": [
        16
      ],
      "matrix": [
        1.0,
        -9.654305461538043e-33,
        0.0,
        0.0,
        9.654305461538043e-33,
        1.0,
        0.0,
        0.0,
        0.0,
        0.0,
        1.0,
        0.0,
        -4.927481651306152,
        25.43399429321289,
        472.83587646484375,
        1.0
      ],
      "name": "Frame8"
    },
    {
      "mesh": 4,
      "name": "Frame8_Frame8_0"
    },
    {
      "children": [
        18
      ],
      "matrix": [
        1.0,
        -9.654305461538043e-33,
        0.0,
        0.0,
        9.654305461538043e-33,
        1.0,
        0.0,
        0.0,
        0.0,
        0.0,
        1.0,
        0.0,
        -4.927481651306152,
        30.601228713989258,
        466.2635803222656,
        1.0
      ],
      "name": "Frame7"
    },
    {
      "mesh": 5,
      "name": "Frame7_Frame7_0"
    },
    {
      "children": [
        20
      ],
      "matrix": [
        1.0,
        -9.654305461538043e-33,
        0.0,
        0.0,
        9.654305461538043e-33,
        1.0,
        0.0,
        0.0,
        0.0,
        0.0,
        1.0,
        0.0,
        -4.927481651306152,
        30.601228713989258,
        466.2635803222656,
        1.0
      ],
      "name": "Frame6"
    },
    {
      "mesh": 6,
      "name": "Frame6_Frame6_0"
    },
    {
      "children": [
        22
      ],
      "matrix": [
        2.220446049250313e-16,
        0.0,
        -1.0,
        0.0,
        -2.4492935982947064e-16,
        1.0,
        -4.930380657631324e-32,
        0.0,
        1.0,
        2.4492935982947064e-16,
        2.220446049250313e-16,
        0.0,
        335.00872802734375,
        -120.27812957763672,
        -55.56153106689453,
        1.0
      ],
      "name": "Frame5"
    },
    {
      "mesh": 7,
      "name": "Frame5_Frame5_0"
    },
    {
      "children": [
        24
      ],
      "matrix": [
        4.440892098500626e-16,
        -5.473822126268817e-48,
        1.0,
        0.0,
        7.102978005113621e-32,
        1.0,
        -3.28429327576129e-47,
        0.0,
        -1.0,
        7.102978005113621e-32,
        4.440892098500626e-16,
        0.0,
        -336.68597412109375,
        -120.27812957763672,
        -32.78517150878906,
        1.0
      ],
      "name": "Frame4"
    },
    {
      "mesh": 8,
      "name": "Frame4_Frame4_0"
    },
    {
      "children": [
        26
      ],
      "matrix": [
        -1.0,
        -1.224646799147353e-16,
        1.2246467991473527e-16,
        0.0,
        -1.2246467991473525e-16,
        -2.220446049250313e-16,
        -1.0,
        0.0,
        1.2246467991473532e-16,
        -1.0,
        2.220446049250313e-16,
        0.0,
        -7.226028919219971,
        186.01611328125,
        -277.77349853515625,
        1.0
      ],
      "name": "Frame3"
    },
    {
      "mesh": 9,
      "name": "Frame3_Frame3_0"
    },
    {
      "children": [
        28
      ],
      "matrix": [
        -1.0,
        -1.224646799147353e-16,
        1.2246467991473527e-16,
        0.0,
        -1.2246467991473525e-16,
        -2.220446049250313e-16,
        -1.0,
        0.0,
        1.2246467991473532e-16,
        -1.0,
        2.220446049250313e-16,
        0.0,
        -7.226028919219971,
        186.01611328125,
        163.8251953125,
        1.0
      ],
      "name": "Frame2"
    },
    {
      "mesh": 10,
      "name": "Frame2_Frame2_0"
    },
    {
      "children": [
        30
      ],
      "matrix": [
        -1.0,
        -1.224646799147353e-16,
        1.2246467991473527e-16,
        0.0,
        -1.2246467991473525e-16,
        -2.220446049250313e-16,
        -1.0,
        0.0,
        1.2246467991473532e-16,
        -1.0,
        2.220446049250313e-16,
        0.0,
        -7.226028919219971,
        186.01611328125,
        598.1015014648438,
        1.0
      ],
      "name": "Frame1"
    },
    {
      "mesh": 11,
      "name": "Frame1_Frame1_0"
    },
    {
      "children": [
        32,
        34,
        36,
        38,
        40,
        42,
        44
      ],
      "matrix": [
        1.0,
        -9.654305461538043e-33,
        0.0,
        0.0,
        9.654305461538043e-33,
        1.0,
        0.0,
        0.0,
        0.0,
        0.0,
        1.0,
        0.0,
        69.97053527832031,
        -61.91477966308594,
        -463.09765625,
        1.0
      ],
      "name": "Pillows"
    },
    {
      "children": [
        33
      ],
      "matrix": [
        0.9811498163068815,
        0.08598181962903574,
        0.1730669369182129,
        0.0,
        -0.19191274609614772,
        0.3284028407982076,
        0.9248357000254168,
        0.0,
        0.02268338261389309,
        -0.940616128316407,
        0.33871339404317125,
        0.0,
        -156.19290161132813,
        -34.79275131225586,
        71.81161499023438,
        1.0
      ],
      "name": "Pillows1_3"
    },
    {
      "mesh": 12,
      "name": "Pillows1_3_Pillows1_0"
    },
    {
      "children": [
        35
      ],
      "matrix": [
        0.9959835714455535,
        -0.05214991716263208,
        -0.07278125823651736,
        0.0,
        0.0889871849927925,
        0.486671835267975,
        0.8690407387826876,
        0.0,
        -0.009899814019391412,
        -0.8720268980351648,
        0.48935782693806984,
        0.0,
        103.47677612304688,
        -45.20208740234375,
        51.68159866333008,
        1.0
      ],
      "name": "Pillows1_2"
    },
    {
      "mesh": 13,
      "name": "Pillows1_2_Pillows1_0"
    },
    {
      "children": [
        37
      ],
      "matrix": [
        1.0,
        -9.654305461538043e-33,
        2.4651903288156616e-32,
        0.0,
        -1.8777595035874877e-32,
        0.39776839860868907,
        0.9174858587838175,
        0.0,
        -1.8663436830926866e-32,
        -0.9174858587838175,
        0.39776839860868907,
        0.0,
        -254.9326171875,
        -17.522279739379883,
        31.132883071899414,
        1.0
      ],
      "name": "Pillows1_1"
    },
    {
      "mesh": 14,
      "name": "Pillows1_1_Pillows1_0"
    },
    {
      "children": [
        39
      ],
      "matrix": [
        1.0,
        -9.654305461538043e-33,
        2.4651903288156616e-32,
        0.0,
        -1.8777595035874877e-32,
        0.39776839860868907,
        0.9174858587838175,
        0.0,
        -1.8663436830926866e-32,
        -0.9174858587838175,
        0.39776839860868907,
        0.0,
        -31.98309898376465,
        -17.522279739379883,
        31.132883071899414,
        1.0
      ],
      "name": "Pillows1"
    },
    {
      "mesh": 15,
      "name": "Pillows1_Pillows1_0"
    },
    {
      "children": [
        41
      ],
      "matrix": [
        1.0,
        -9.654305461538043e-33,
        0.0,
        0.0,
        9.654305461538043e-33,
        1.0,
        0.0,
        0.0,
        0.0,
        0.0,
        1.0,
        0.0,
        -31.253665924072266,
        145.07742309570313,
        371.7961120605469,
        1.0
      ],
      "name": "Mattress"
    },
    {
      "mesh": 16,
      "name": "Mattress_Mattress_0"
    },
    {
      "children": [
        43
      ],
      "matrix": [
        0.0037557750620761388,
        -3.1230748379563373e-18,
        0.9999929470519695,
        0.0,
        1.7909659921174448e-16,
        -1.0,
        -3.7957481501929104e-18,
        0.0,
        0.9999929470519695,
        1.7910959202898224e-16,
        -0.0037557750620762498,
        0.0,
        -20.764083862304688,
        -91.76513671875,
        479.3471984863281,
        1.0
      ],
      "name": "Blanket"
    },
    {
      "mesh": 17,
      "name": "Blanket_Blanket_0"
    },
    {
      "children": [
        45
      ],
      "matrix": [
        1.0,
        -9.654305461538043e-33,
        2.4651903288156616e-32,
        0.0,
        -1.8777595035874877e-32,
        0.39776839860868907,
        0.9174858587838175,
        0.0,
        -1.8663436830926866e-32,
        -0.9174858587838175,
        0.39776839860868907,
        0.0,
        191.22164916992188,
        -17.522279739379883,
        31.132883071899414,
        1.0
      ],
      "name": "Pillows1_2_2"
    },
    {
      "mesh": 18,
      "name": "Pillows1_2_2_Pillows1_0"
    }
  ],
  "samplers": [
    {
      "magFilter": 9729,
      "minFilter": 9987,
      "wrapS": 10497,
      "wrapT": 10497
    }
  ],
  "scene": 0,
  "scenes": [
    {
      "name": "Sketchfab_Scene",
      "nodes": [
        0
      ]
    }
  ],
  "textures": [
    {
      "sampler": 0,
      "source": 0
    },
    {
      "sampler": 0,
      "source": 1
    },
    {
      "sampler": 0,
      "source": 2
    },
    {
      "sampler": 0,
      "source": 3
    },
    {
      "sampler": 0,
      "source": 4
    },
    {
      "sampler": 0,
      "source": 5
    },
    {
      "sampler": 0,
      "source": 6
    },
    {
      "sampler": 0,
      "source": 7
    },
    {
      "sampler": 0,
      "source": 8
    },
    {
      "sampler": 0,
      "source": 9
    },
    {
      "sampler": 0,
      "source": 10
    },
    {
      "sampler": 0,
      "source": 11
    },
    {
      "sampler": 0,
      "source": 12
    },
    {
      "sampler": 0,
      "source": 13
    },
    {
      "sampler": 0,
      "source": 14
    }
  ]
}
